<svg width="660" height="384" viewBox="0 0 660 384" fill="none" xmlns="http://www.w3.org/2000/svg">
<g filter="url(#filter0_dddd_1_1344)">
<mask id="path-1-inside-1_1_1344" fill="white">
<path d="M151 49C151 40.1634 158.163 33 167 33H492C500.837 33 508 40.1634 508 49V421C508 429.837 500.837 437 492 437H167C158.163 437 151 429.837 151 421V49Z"/>
</mask>
<path d="M151 49C151 40.1634 158.163 33 167 33H492C500.837 33 508 40.1634 508 49V421C508 429.837 500.837 437 492 437H167C158.163 437 151 429.837 151 421V49Z" fill="white"/>
<path d="M151 49C151 40.1634 158.163 33 167 33H492C500.837 33 508 40.1634 508 49V421C508 429.837 500.837 437 492 437H167C158.163 437 151 429.837 151 421V49Z" fill="url(#paint0_linear_1_1344)" fill-opacity="0.32" style="mix-blend-mode:luminosity"/>
<path d="M167 34.5H492V31.5H167V34.5ZM506.5 49V421H509.5V49H506.5ZM492 435.5H167V438.5H492V435.5ZM152.5 421V49H149.5V421H152.5ZM167 435.5C158.992 435.5 152.5 429.008 152.5 421H149.5C149.5 430.665 157.335 438.5 167 438.5V435.5ZM506.5 421C506.5 429.008 500.008 435.5 492 435.5V438.5C501.665 438.5 509.5 430.665 509.5 421H506.5ZM492 34.5C500.008 34.5 506.5 40.9919 506.5 49H509.5C509.5 39.335 501.665 31.5 492 31.5V34.5ZM167 31.5C157.335 31.5 149.5 39.335 149.5 49H152.5C152.5 40.9919 158.992 34.5 167 34.5V31.5Z" fill="#49576E" fill-opacity="0.2" mask="url(#path-1-inside-1_1_1344)"/>
<path d="M186.728 87.28C185.141 87.28 183.779 87.0093 182.64 86.468C181.52 85.9267 180.503 85.1147 179.588 84.032L182.108 81.512C182.687 82.2773 183.359 82.8747 184.124 83.304C184.889 83.7147 185.823 83.92 186.924 83.92C187.913 83.92 188.697 83.724 189.276 83.332C189.873 82.94 190.172 82.3987 190.172 81.708C190.172 81.1107 190.004 80.6253 189.668 80.252C189.332 79.8787 188.884 79.5613 188.324 79.3C187.783 79.0387 187.176 78.8053 186.504 78.6C185.851 78.376 185.188 78.124 184.516 77.844C183.863 77.564 183.256 77.2187 182.696 76.808C182.155 76.3787 181.716 75.8373 181.38 75.184C181.044 74.512 180.876 73.672 180.876 72.664C180.876 71.4693 181.165 70.452 181.744 69.612C182.323 68.772 183.116 68.128 184.124 67.68C185.132 67.232 186.271 67.008 187.54 67.008C188.884 67.008 190.097 67.26 191.18 67.764C192.263 68.268 193.149 68.9213 193.84 69.724L191.32 72.244C190.741 71.6093 190.144 71.1427 189.528 70.844C188.931 70.5453 188.249 70.396 187.484 70.396C186.607 70.396 185.916 70.564 185.412 70.9C184.908 71.236 184.656 71.7213 184.656 72.356C184.656 72.8973 184.824 73.336 185.16 73.672C185.496 74.008 185.935 74.2973 186.476 74.54C187.036 74.7827 187.643 75.016 188.296 75.24C188.968 75.464 189.631 75.716 190.284 75.996C190.956 76.276 191.563 76.64 192.104 77.088C192.664 77.536 193.112 78.1147 193.448 78.824C193.784 79.5147 193.952 80.3733 193.952 81.4C193.952 83.2293 193.308 84.6667 192.02 85.712C190.732 86.7573 188.968 87.28 186.728 87.28ZM202.924 87.28C201.505 87.28 200.245 86.9813 199.144 86.384C198.043 85.768 197.165 84.928 196.512 83.864C195.877 82.8 195.56 81.5867 195.56 80.224C195.56 78.88 195.868 77.6853 196.484 76.64C197.119 75.576 197.977 74.736 199.06 74.12C200.143 73.4853 201.347 73.168 202.672 73.168C203.979 73.168 205.127 73.4667 206.116 74.064C207.124 74.6427 207.908 75.4453 208.468 76.472C209.047 77.48 209.336 78.628 209.336 79.916C209.336 80.1587 209.317 80.4107 209.28 80.672C209.261 80.9147 209.215 81.1947 209.14 81.512L197.772 81.54V78.796L207.432 78.768L205.948 79.916C205.911 79.1133 205.761 78.4413 205.5 77.9C205.257 77.3587 204.893 76.948 204.408 76.668C203.941 76.3693 203.363 76.22 202.672 76.22C201.944 76.22 201.309 76.388 200.768 76.724C200.227 77.0413 199.807 77.4987 199.508 78.096C199.228 78.6747 199.088 79.3653 199.088 80.168C199.088 80.9893 199.237 81.708 199.536 82.324C199.853 82.9213 200.301 83.388 200.88 83.724C201.459 84.0413 202.131 84.2 202.896 84.2C203.587 84.2 204.212 84.088 204.772 83.864C205.332 83.6213 205.817 83.2667 206.228 82.8L208.384 84.956C207.731 85.7213 206.928 86.3 205.976 86.692C205.043 87.084 204.025 87.28 202.924 87.28ZM217.988 87.28C216.607 87.28 215.366 86.972 214.264 86.356C213.163 85.74 212.295 84.9 211.66 83.836C211.026 82.772 210.708 81.5773 210.708 80.252C210.708 78.908 211.026 77.704 211.66 76.64C212.295 75.576 213.163 74.736 214.264 74.12C215.384 73.4853 216.626 73.168 217.988 73.168C219.052 73.168 220.032 73.364 220.928 73.756C221.824 74.148 222.599 74.708 223.252 75.436L220.9 77.816C220.546 77.424 220.116 77.1253 219.612 76.92C219.127 76.7147 218.586 76.612 217.988 76.612C217.316 76.612 216.71 76.7707 216.168 77.088C215.646 77.3867 215.226 77.8067 214.908 78.348C214.61 78.8707 214.46 79.496 214.46 80.224C214.46 80.9333 214.61 81.568 214.908 82.128C215.226 82.6693 215.646 83.0987 216.168 83.416C216.71 83.7147 217.316 83.864 217.988 83.864C218.604 83.864 219.155 83.7613 219.64 83.556C220.144 83.332 220.574 83.0147 220.928 82.604L223.308 84.984C222.618 85.7307 221.824 86.3 220.928 86.692C220.032 87.084 219.052 87.28 217.988 87.28ZM231.154 87.28C229.959 87.28 228.895 87.028 227.962 86.524C227.047 86.02 226.328 85.32 225.806 84.424C225.283 83.528 225.022 82.492 225.022 81.316V73.476H228.718V81.232C228.718 81.792 228.811 82.2773 228.998 82.688C229.184 83.08 229.464 83.3787 229.838 83.584C230.211 83.7893 230.65 83.892 231.154 83.892C231.919 83.892 232.516 83.6587 232.946 83.192C233.375 82.7253 233.59 82.072 233.59 81.232V73.476H237.258V81.316C237.258 82.5107 236.996 83.556 236.474 84.452C235.97 85.348 235.251 86.048 234.318 86.552C233.403 87.0373 232.348 87.28 231.154 87.28ZM240.179 87V73.476H243.847V87H240.179ZM243.847 79.524L242.419 78.572C242.587 76.9107 243.072 75.604 243.875 74.652C244.677 73.6813 245.835 73.196 247.347 73.196C248 73.196 248.588 73.308 249.111 73.532C249.633 73.7373 250.109 74.0827 250.539 74.568L248.243 77.2C248.037 76.976 247.785 76.808 247.487 76.696C247.207 76.584 246.88 76.528 246.507 76.528C245.723 76.528 245.079 76.78 244.575 77.284C244.089 77.7693 243.847 78.516 243.847 79.524ZM257.912 87.28C256.494 87.28 255.234 86.9813 254.132 86.384C253.031 85.768 252.154 84.928 251.5 83.864C250.866 82.8 250.548 81.5867 250.548 80.224C250.548 78.88 250.856 77.6853 251.472 76.64C252.107 75.576 252.966 74.736 254.048 74.12C255.131 73.4853 256.335 73.168 257.66 73.168C258.967 73.168 260.115 73.4667 261.104 74.064C262.112 74.6427 262.896 75.4453 263.456 76.472C264.035 77.48 264.324 78.628 264.324 79.916C264.324 80.1587 264.306 80.4107 264.268 80.672C264.25 80.9147 264.203 81.1947 264.128 81.512L252.76 81.54V78.796L262.42 78.768L260.936 79.916C260.899 79.1133 260.75 78.4413 260.488 77.9C260.246 77.3587 259.882 76.948 259.396 76.668C258.93 76.3693 258.351 76.22 257.66 76.22C256.932 76.22 256.298 76.388 255.756 76.724C255.215 77.0413 254.795 77.4987 254.496 78.096C254.216 78.6747 254.076 79.3653 254.076 80.168C254.076 80.9893 254.226 81.708 254.524 82.324C254.842 82.9213 255.29 83.388 255.868 83.724C256.447 84.0413 257.119 84.2 257.884 84.2C258.575 84.2 259.2 84.088 259.76 83.864C260.32 83.6213 260.806 83.2667 261.216 82.8L263.372 84.956C262.719 85.7213 261.916 86.3 260.964 86.692C260.031 87.084 259.014 87.28 257.912 87.28Z" fill="#1B1F28"/>
<path opacity="0.5" d="M179 121C179 116.582 182.582 113 187 113H472C476.418 113 480 116.582 480 121V209C480 213.418 476.418 217 472 217H187C182.582 217 179 213.418 179 209V121Z" fill="#1B1F28" fill-opacity="0.2"/>
<path opacity="0.5" d="M179 245C179 240.582 182.582 237 187 237H472C476.418 237 480 240.582 480 245V333C480 337.418 476.418 341 472 341H187C182.582 341 179 337.418 179 333V245Z" fill="#1B1F28" fill-opacity="0.2"/>
<path d="M179 369C179 364.582 182.582 361 187 361H278C282.418 361 286 364.582 286 369V401C286 405.418 282.418 409 278 409H187C182.582 409 179 405.418 179 401V369Z" fill="#0B3D91"/>
<path d="M196.44 392V377.94H198.36L204.06 387.06H202.96L208.64 377.94H210.56V392H207.86V382.6L208.38 382.76L204.42 389.12H202.58L198.62 382.76L199.16 382.6V392H196.44ZM217.192 392.2C216.312 392.2 215.519 391.98 214.812 391.54C214.106 391.1 213.552 390.5 213.152 389.74C212.752 388.98 212.552 388.127 212.552 387.18C212.552 386.22 212.752 385.36 213.152 384.6C213.552 383.84 214.106 383.24 214.812 382.8C215.519 382.36 216.312 382.14 217.192 382.14C217.886 382.14 218.506 382.28 219.052 382.56C219.599 382.84 220.032 383.233 220.352 383.74C220.686 384.233 220.866 384.793 220.892 385.42V388.9C220.866 389.54 220.686 390.107 220.352 390.6C220.032 391.093 219.599 391.487 219.052 391.78C218.506 392.06 217.886 392.2 217.192 392.2ZM217.672 389.78C218.406 389.78 218.999 389.54 219.452 389.06C219.906 388.567 220.132 387.933 220.132 387.16C220.132 386.653 220.026 386.207 219.812 385.82C219.612 385.42 219.326 385.113 218.952 384.9C218.592 384.673 218.166 384.56 217.672 384.56C217.192 384.56 216.766 384.673 216.392 384.9C216.032 385.113 215.746 385.42 215.532 385.82C215.332 386.207 215.232 386.653 215.232 387.16C215.232 387.68 215.332 388.14 215.532 388.54C215.746 388.927 216.032 389.233 216.392 389.46C216.766 389.673 217.192 389.78 217.672 389.78ZM219.992 392V389.4L220.412 387.04L219.992 384.72V382.34H222.592V392H219.992ZM231.41 392V386.46C231.41 385.887 231.23 385.42 230.87 385.06C230.51 384.7 230.043 384.52 229.47 384.52C229.097 384.52 228.763 384.6 228.47 384.76C228.177 384.92 227.943 385.147 227.77 385.44C227.61 385.733 227.53 386.073 227.53 386.46L226.51 385.94C226.51 385.18 226.67 384.52 226.99 383.96C227.323 383.387 227.777 382.94 228.35 382.62C228.937 382.3 229.597 382.14 230.33 382.14C231.037 382.14 231.67 382.32 232.23 382.68C232.79 383.027 233.23 383.487 233.55 384.06C233.87 384.62 234.03 385.227 234.03 385.88V392H231.41ZM224.91 392V382.34H227.53V392H224.91ZM240.18 392.2C239.3 392.2 238.507 391.98 237.8 391.54C237.094 391.1 236.54 390.5 236.14 389.74C235.74 388.98 235.54 388.127 235.54 387.18C235.54 386.22 235.74 385.36 236.14 384.6C236.54 383.84 237.094 383.24 237.8 382.8C238.507 382.36 239.3 382.14 240.18 382.14C240.874 382.14 241.494 382.28 242.04 382.56C242.587 382.84 243.02 383.233 243.34 383.74C243.674 384.233 243.854 384.793 243.88 385.42V388.9C243.854 389.54 243.674 390.107 243.34 390.6C243.02 391.093 242.587 391.487 242.04 391.78C241.494 392.06 240.874 392.2 240.18 392.2ZM240.66 389.78C241.394 389.78 241.987 389.54 242.44 389.06C242.894 388.567 243.12 387.933 243.12 387.16C243.12 386.653 243.014 386.207 242.8 385.82C242.6 385.42 242.314 385.113 241.94 384.9C241.58 384.673 241.154 384.56 240.66 384.56C240.18 384.56 239.754 384.673 239.38 384.9C239.02 385.113 238.734 385.42 238.52 385.82C238.32 386.207 238.22 386.653 238.22 387.16C238.22 387.68 238.32 388.14 238.52 388.54C238.734 388.927 239.02 389.233 239.38 389.46C239.754 389.673 240.18 389.78 240.66 389.78ZM242.98 392V389.4L243.4 387.04L242.98 384.72V382.34H245.58V392H242.98ZM251.938 396.28C250.912 396.28 250.005 396.093 249.218 395.72C248.432 395.36 247.805 394.847 247.338 394.18L248.998 392.52C249.372 392.96 249.785 393.293 250.238 393.52C250.705 393.76 251.265 393.88 251.918 393.88C252.732 393.88 253.372 393.673 253.838 393.26C254.318 392.847 254.558 392.273 254.558 391.54V389.12L254.998 387L254.578 384.88V382.34H257.178V391.5C257.178 392.46 256.952 393.293 256.498 394C256.058 394.72 255.445 395.28 254.658 395.68C253.872 396.08 252.965 396.28 251.938 396.28ZM251.818 391.74C250.952 391.74 250.172 391.533 249.478 391.12C248.785 390.693 248.238 390.113 247.838 389.38C247.452 388.647 247.258 387.827 247.258 386.92C247.258 386.013 247.452 385.2 247.838 384.48C248.238 383.76 248.785 383.193 249.478 382.78C250.172 382.353 250.952 382.14 251.818 382.14C252.538 382.14 253.172 382.28 253.718 382.56C254.278 382.84 254.718 383.227 255.038 383.72C255.358 384.2 255.532 384.767 255.558 385.42V388.46C255.532 389.1 255.352 389.673 255.018 390.18C254.698 390.673 254.258 391.06 253.698 391.34C253.152 391.607 252.525 391.74 251.818 391.74ZM252.338 389.36C252.818 389.36 253.232 389.26 253.578 389.06C253.938 388.847 254.218 388.56 254.418 388.2C254.618 387.827 254.718 387.407 254.718 386.94C254.718 386.46 254.618 386.04 254.418 385.68C254.218 385.32 253.938 385.04 253.578 384.84C253.232 384.627 252.818 384.52 252.338 384.52C251.858 384.52 251.438 384.627 251.078 384.84C250.718 385.04 250.438 385.327 250.238 385.7C250.038 386.06 249.938 386.473 249.938 386.94C249.938 387.393 250.038 387.807 250.238 388.18C250.438 388.54 250.718 388.827 251.078 389.04C251.438 389.253 251.858 389.36 252.338 389.36ZM264.1 392.2C263.087 392.2 262.187 391.987 261.4 391.56C260.614 391.12 259.987 390.52 259.52 389.76C259.067 389 258.84 388.133 258.84 387.16C258.84 386.2 259.06 385.347 259.5 384.6C259.954 383.84 260.567 383.24 261.34 382.8C262.114 382.347 262.974 382.12 263.92 382.12C264.854 382.12 265.674 382.333 266.38 382.76C267.1 383.173 267.66 383.747 268.06 384.48C268.474 385.2 268.68 386.02 268.68 386.94C268.68 387.113 268.667 387.293 268.64 387.48C268.627 387.653 268.594 387.853 268.54 388.08L260.42 388.1V386.14L267.32 386.12L266.26 386.94C266.234 386.367 266.127 385.887 265.94 385.5C265.767 385.113 265.507 384.82 265.16 384.62C264.827 384.407 264.414 384.3 263.92 384.3C263.4 384.3 262.947 384.42 262.56 384.66C262.174 384.887 261.874 385.213 261.66 385.64C261.46 386.053 261.36 386.547 261.36 387.12C261.36 387.707 261.467 388.22 261.68 388.66C261.907 389.087 262.227 389.42 262.64 389.66C263.054 389.887 263.534 390 264.08 390C264.574 390 265.02 389.92 265.42 389.76C265.82 389.587 266.167 389.333 266.46 389L268 390.54C267.534 391.087 266.96 391.5 266.28 391.78C265.614 392.06 264.887 392.2 264.1 392.2Z" fill="#FAFCFF"/>
</g>
<defs>
<filter id="filter0_dddd_1_1344" x="128" y="27" width="423" height="525" filterUnits="userSpaceOnUse" color-interpolation-filters="sRGB">
<feFlood flood-opacity="0" result="BackgroundImageFix"/>
<feColorMatrix in="SourceAlpha" type="matrix" values="0 0 0 0 0 0 0 0 0 0 0 0 0 0 0 0 0 0 127 0" result="hardAlpha"/>
<feOffset dx="1" dy="5"/>
<feGaussianBlur stdDeviation="5.5"/>
<feColorMatrix type="matrix" values="0 0 0 0 0 0 0 0 0 0 0 0 0 0 0 0 0 0 0.08 0"/>
<feBlend mode="normal" in2="BackgroundImageFix" result="effect1_dropShadow_1_1344"/>
<feColorMatrix in="SourceAlpha" type="matrix" values="0 0 0 0 0 0 0 0 0 0 0 0 0 0 0 0 0 0 127 0" result="hardAlpha"/>
<feOffset dx="2" dy="20"/>
<feGaussianBlur stdDeviation="10.5"/>
<feColorMatrix type="matrix" values="0 0 0 0 0 0 0 0 0 0 0 0 0 0 0 0 0 0 0.06 0"/>
<feBlend mode="normal" in2="effect1_dropShadow_1_1344" result="effect2_dropShadow_1_1344"/>
<feColorMatrix in="SourceAlpha" type="matrix" values="0 0 0 0 0 0 0 0 0 0 0 0 0 0 0 0 0 0 127 0" result="hardAlpha"/>
<feOffset dx="5" dy="46"/>
<feGaussianBlur stdDeviation="14"/>
<feColorMatrix type="matrix" values="0 0 0 0 0 0 0 0 0 0 0 0 0 0 0 0 0 0 0.04 0"/>
<feBlend mode="normal" in2="effect2_dropShadow_1_1344" result="effect3_dropShadow_1_1344"/>
<feColorMatrix in="SourceAlpha" type="matrix" values="0 0 0 0 0 0 0 0 0 0 0 0 0 0 0 0 0 0 127 0" result="hardAlpha"/>
<feOffset dx="10" dy="82"/>
<feGaussianBlur stdDeviation="16.5"/>
<feColorMatrix type="matrix" values="0 0 0 0 0 0 0 0 0 0 0 0 0 0 0 0 0 0 0.01 0"/>
<feBlend mode="normal" in2="effect3_dropShadow_1_1344" result="effect4_dropShadow_1_1344"/>
<feBlend mode="normal" in="SourceGraphic" in2="effect4_dropShadow_1_1344" result="shape"/>
</filter>
<linearGradient id="paint0_linear_1_1344" x1="181.776" y1="-0.666667" x2="508.955" y2="401.562" gradientUnits="userSpaceOnUse">
<stop stop-color="#FAFCFF" stop-opacity="0"/>
<stop offset="1" stop-color="#0054AD" stop-opacity="0.16"/>
</linearGradient>
</defs>
</svg>
