<svg width="660" height="360" viewBox="0 0 660 360" fill="none" xmlns="http://www.w3.org/2000/svg">
<g filter="url(#filter0_dddd_1_1384)">
<mask id="path-1-inside-1_1_1384" fill="white">
<path d="M182 49C182 40.1634 189.163 33 198 33H462C470.837 33 478 40.1634 478 49V421C478 429.837 470.837 437 462 437H198C189.163 437 182 429.837 182 421V49Z"/>
</mask>
<path d="M182 49C182 40.1634 189.163 33 198 33H462C470.837 33 478 40.1634 478 49V421C478 429.837 470.837 437 462 437H198C189.163 437 182 429.837 182 421V49Z" fill="white"/>
<path d="M182 49C182 40.1634 189.163 33 198 33H462C470.837 33 478 40.1634 478 49V421C478 429.837 470.837 437 462 437H198C189.163 437 182 429.837 182 421V49Z" fill="url(#paint0_linear_1_1384)" fill-opacity="0.16" style="mix-blend-mode:luminosity"/>
<path d="M198 34.5H462V31.5H198V34.5ZM476.5 49V421H479.5V49H476.5ZM462 435.5H198V438.5H462V435.5ZM183.5 421V49H180.5V421H183.5ZM198 435.5C189.992 435.5 183.5 429.008 183.5 421H180.5C180.5 430.665 188.335 438.5 198 438.5V435.5ZM476.5 421C476.5 429.008 470.008 435.5 462 435.5V438.5C471.665 438.5 479.5 430.665 479.5 421H476.5ZM462 34.5C470.008 34.5 476.5 40.9919 476.5 49H479.5C479.5 39.335 471.665 31.5 462 31.5V34.5ZM198 31.5C188.335 31.5 180.5 39.335 180.5 49H183.5C183.5 40.9919 189.992 34.5 198 34.5V31.5Z" fill="#49576E" fill-opacity="0.2" mask="url(#path-1-inside-1_1_1384)"/>
<path d="M210 69C210 64.5817 213.582 61 218 61H344C348.418 61 352 64.5817 352 69V85C352 89.4183 348.418 93 344 93H218C213.582 93 210 89.4183 210 85V69Z" fill="#1B1F28" fill-opacity="0.2"/>
<path opacity="0.5" d="M210 121C210 116.582 213.582 113 218 113H442C446.418 113 450 116.582 450 121V401C450 405.418 446.418 409 442 409H218C213.582 409 210 405.418 210 401V121Z" fill="#1B1F28" fill-opacity="0.2"/>
</g>
<g filter="url(#filter1_dddd_1_1384)">
<mask id="path-5-inside-2_1_1384" fill="white">
<path d="M71 305C71 296.163 78.1634 289 87 289H286C294.837 289 302 296.163 302 305V345C302 353.837 294.837 361 286 361H87C78.1634 361 71 353.837 71 345V305Z"/>
</mask>
<path d="M71 305C71 296.163 78.1634 289 87 289H286C294.837 289 302 296.163 302 305V345C302 353.837 294.837 361 286 361H87C78.1634 361 71 353.837 71 345V305Z" fill="white"/>
<path d="M71 305C71 296.163 78.1634 289 87 289H286C294.837 289 302 296.163 302 305V345C302 353.837 294.837 361 286 361H87C78.1634 361 71 353.837 71 345V305Z" fill="#25467E" fill-opacity="0.09"/>
<path d="M71 305C71 296.163 78.1634 289 87 289H286C294.837 289 302 296.163 302 305V345C302 353.837 294.837 361 286 361H87C78.1634 361 71 353.837 71 345V305Z" fill="url(#paint1_linear_1_1384)" fill-opacity="0.32" style="mix-blend-mode:luminosity"/>
<path d="M87 290.5H286V287.5H87V290.5ZM300.5 305V345H303.5V305H300.5ZM286 359.5H87V362.5H286V359.5ZM72.5 345V305H69.5V345H72.5ZM87 359.5C78.9919 359.5 72.5 353.008 72.5 345H69.5C69.5 354.665 77.335 362.5 87 362.5V359.5ZM300.5 345C300.5 353.008 294.008 359.5 286 359.5V362.5C295.665 362.5 303.5 354.665 303.5 345H300.5ZM286 290.5C294.008 290.5 300.5 296.992 300.5 305H303.5C303.5 295.335 295.665 287.5 286 287.5V290.5ZM87 287.5C77.335 287.5 69.5 295.335 69.5 305H72.5C72.5 296.992 78.9919 290.5 87 290.5V287.5Z" fill="#49576E" fill-opacity="0.2" mask="url(#path-5-inside-2_1_1384)"/>
<path d="M141.44 334V319.94H143.36L149.06 329.06H147.96L153.64 319.94H155.56V334H152.86V324.6L153.38 324.76L149.42 331.12H147.58L143.62 324.76L144.16 324.6V334H141.44ZM162.692 334.2C161.719 334.2 160.839 333.98 160.052 333.54C159.279 333.087 158.659 332.48 158.192 331.72C157.739 330.947 157.512 330.087 157.512 329.14C157.512 328.193 157.739 327.347 158.192 326.6C158.646 325.84 159.266 325.24 160.052 324.8C160.839 324.347 161.712 324.12 162.672 324.12C163.659 324.12 164.539 324.347 165.312 324.8C166.099 325.24 166.719 325.84 167.172 326.6C167.626 327.347 167.852 328.193 167.852 329.14C167.852 330.087 167.626 330.947 167.172 331.72C166.719 332.48 166.099 333.087 165.312 333.54C164.539 333.98 163.666 334.2 162.692 334.2ZM162.672 331.76C163.166 331.76 163.599 331.653 163.972 331.44C164.359 331.213 164.652 330.907 164.852 330.52C165.066 330.12 165.172 329.667 165.172 329.16C165.172 328.653 165.066 328.207 164.852 327.82C164.639 327.433 164.346 327.133 163.972 326.92C163.599 326.693 163.166 326.58 162.672 326.58C162.192 326.58 161.766 326.693 161.392 326.92C161.019 327.133 160.726 327.433 160.512 327.82C160.299 328.207 160.192 328.653 160.192 329.16C160.192 329.667 160.299 330.12 160.512 330.52C160.726 330.907 161.019 331.213 161.392 331.44C161.766 331.653 162.192 331.76 162.672 331.76ZM176.039 334V328.46C176.039 327.887 175.859 327.42 175.499 327.06C175.139 326.7 174.672 326.52 174.099 326.52C173.726 326.52 173.392 326.6 173.099 326.76C172.806 326.92 172.572 327.147 172.399 327.44C172.239 327.733 172.159 328.073 172.159 328.46L171.139 327.94C171.139 327.18 171.299 326.52 171.619 325.96C171.952 325.387 172.406 324.94 172.979 324.62C173.566 324.3 174.226 324.14 174.959 324.14C175.666 324.14 176.299 324.32 176.859 324.68C177.419 325.027 177.859 325.487 178.179 326.06C178.499 326.62 178.659 327.227 178.659 327.88V334H176.039ZM169.539 334V324.34H172.159V334H169.539ZM180.769 334V324.34H183.409V334H180.769ZM182.089 322.78C181.663 322.78 181.309 322.64 181.029 322.36C180.749 322.067 180.609 321.707 180.609 321.28C180.609 320.867 180.749 320.513 181.029 320.22C181.309 319.927 181.663 319.78 182.089 319.78C182.529 319.78 182.883 319.927 183.149 320.22C183.429 320.513 183.569 320.867 183.569 321.28C183.569 321.707 183.429 322.067 183.149 322.36C182.883 322.64 182.529 322.78 182.089 322.78ZM187.15 334V320.32H189.77V334H187.15ZM184.89 326.64V324.34H192.03V326.64H184.89ZM197.809 334.2C196.836 334.2 195.956 333.98 195.169 333.54C194.396 333.087 193.776 332.48 193.309 331.72C192.856 330.947 192.629 330.087 192.629 329.14C192.629 328.193 192.856 327.347 193.309 326.6C193.763 325.84 194.383 325.24 195.169 324.8C195.956 324.347 196.829 324.12 197.789 324.12C198.776 324.12 199.656 324.347 200.429 324.8C201.216 325.24 201.836 325.84 202.289 326.6C202.743 327.347 202.969 328.193 202.969 329.14C202.969 330.087 202.743 330.947 202.289 331.72C201.836 332.48 201.216 333.087 200.429 333.54C199.656 333.98 198.783 334.2 197.809 334.2ZM197.789 331.76C198.283 331.76 198.716 331.653 199.089 331.44C199.476 331.213 199.769 330.907 199.969 330.52C200.183 330.12 200.289 329.667 200.289 329.16C200.289 328.653 200.183 328.207 199.969 327.82C199.756 327.433 199.463 327.133 199.089 326.92C198.716 326.693 198.283 326.58 197.789 326.58C197.309 326.58 196.883 326.693 196.509 326.92C196.136 327.133 195.843 327.433 195.629 327.82C195.416 328.207 195.309 328.653 195.309 329.16C195.309 329.667 195.416 330.12 195.629 330.52C195.843 330.907 196.136 331.213 196.509 331.44C196.883 331.653 197.309 331.76 197.789 331.76ZM204.656 334V324.34H207.276V334H204.656ZM207.276 328.66L206.256 327.98C206.376 326.793 206.723 325.86 207.296 325.18C207.869 324.487 208.696 324.14 209.776 324.14C210.243 324.14 210.663 324.22 211.036 324.38C211.409 324.527 211.749 324.773 212.056 325.12L210.416 327C210.269 326.84 210.089 326.72 209.876 326.64C209.676 326.56 209.443 326.52 209.176 326.52C208.616 326.52 208.156 326.7 207.796 327.06C207.449 327.407 207.276 327.94 207.276 328.66Z" fill="#1B1F28"/>
<path d="M122.003 334.232C122.003 334.939 121.722 335.618 121.222 336.118C120.721 336.618 120.043 336.899 119.336 336.899H95.3359C94.6287 336.899 93.9504 336.618 93.4503 336.118C92.9502 335.618 92.6693 334.939 92.6693 334.232V319.565C92.6693 318.858 92.9502 318.18 93.4503 317.68C93.9504 317.18 94.6287 316.899 95.3359 316.899H100.669L103.336 312.899H111.336L114.003 316.899H119.336C120.043 316.899 120.721 317.18 121.222 317.68C121.722 318.18 122.003 318.858 122.003 319.565V334.232Z" stroke="#0B3D91" stroke-width="1.5" stroke-linecap="round" stroke-linejoin="round"/>
<path d="M107.336 331.565C110.281 331.565 112.669 329.178 112.669 326.232C112.669 323.286 110.281 320.899 107.336 320.899C104.39 320.899 102.003 323.286 102.003 326.232C102.003 329.178 104.39 331.565 107.336 331.565Z" stroke="#0B3D91" stroke-width="1.5" stroke-linecap="round" stroke-linejoin="round"/>
</g>
<g filter="url(#filter2_dddd_1_1384)">
<mask id="path-9-inside-3_1_1384" fill="white">
<path d="M361 174C361 165.163 368.163 158 377 158H576C584.837 158 592 165.163 592 174V214C592 222.837 584.837 230 576 230H377C368.163 230 361 222.837 361 214V174Z"/>
</mask>
<path d="M361 174C361 165.163 368.163 158 377 158H576C584.837 158 592 165.163 592 174V214C592 222.837 584.837 230 576 230H377C368.163 230 361 222.837 361 214V174Z" fill="white"/>
<path d="M361 174C361 165.163 368.163 158 377 158H576C584.837 158 592 165.163 592 174V214C592 222.837 584.837 230 576 230H377C368.163 230 361 222.837 361 214V174Z" fill="#25467E" fill-opacity="0.09"/>
<path d="M361 174C361 165.163 368.163 158 377 158H576C584.837 158 592 165.163 592 174V214C592 222.837 584.837 230 576 230H377C368.163 230 361 222.837 361 214V174Z" fill="url(#paint2_linear_1_1384)" fill-opacity="0.32" style="mix-blend-mode:luminosity"/>
<path d="M377 159.5H576V156.5H377V159.5ZM590.5 174V214H593.5V174H590.5ZM576 228.5H377V231.5H576V228.5ZM362.5 214V174H359.5V214H362.5ZM377 228.5C368.992 228.5 362.5 222.008 362.5 214H359.5C359.5 223.665 367.335 231.5 377 231.5V228.5ZM590.5 214C590.5 222.008 584.008 228.5 576 228.5V231.5C585.665 231.5 593.5 223.665 593.5 214H590.5ZM576 159.5C584.008 159.5 590.5 165.992 590.5 174H593.5C593.5 164.335 585.665 156.5 576 156.5V159.5ZM377 156.5C367.335 156.5 359.5 164.335 359.5 174H362.5C362.5 165.992 368.992 159.5 377 159.5V156.5Z" fill="#49576E" fill-opacity="0.2" mask="url(#path-9-inside-3_1_1384)"/>
<path d="M430.4 201L436.06 186.94H438.28L443.92 201H441.02L436.66 189.46H437.66L433.24 201H430.4ZM433.4 198.38V196.1H440.96V198.38H433.4ZM451.957 201V195.46C451.957 194.887 451.777 194.42 451.417 194.06C451.057 193.7 450.59 193.52 450.017 193.52C449.644 193.52 449.31 193.6 449.017 193.76C448.724 193.92 448.49 194.147 448.317 194.44C448.157 194.733 448.077 195.073 448.077 195.46L447.057 194.94C447.057 194.18 447.217 193.52 447.537 192.96C447.87 192.387 448.324 191.94 448.897 191.62C449.484 191.3 450.144 191.14 450.877 191.14C451.584 191.14 452.217 191.32 452.777 191.68C453.337 192.027 453.777 192.487 454.097 193.06C454.417 193.62 454.577 194.227 454.577 194.88V201H451.957ZM445.457 201V191.34H448.077V201H445.457ZM460.727 201.2C459.847 201.2 459.054 200.98 458.347 200.54C457.641 200.1 457.087 199.5 456.687 198.74C456.287 197.98 456.087 197.127 456.087 196.18C456.087 195.22 456.287 194.36 456.687 193.6C457.087 192.84 457.641 192.24 458.347 191.8C459.054 191.36 459.847 191.14 460.727 191.14C461.421 191.14 462.041 191.28 462.587 191.56C463.134 191.84 463.567 192.233 463.887 192.74C464.221 193.233 464.401 193.793 464.427 194.42V197.9C464.401 198.54 464.221 199.107 463.887 199.6C463.567 200.093 463.134 200.487 462.587 200.78C462.041 201.06 461.421 201.2 460.727 201.2ZM461.207 198.78C461.941 198.78 462.534 198.54 462.987 198.06C463.441 197.567 463.667 196.933 463.667 196.16C463.667 195.653 463.561 195.207 463.347 194.82C463.147 194.42 462.861 194.113 462.487 193.9C462.127 193.673 461.701 193.56 461.207 193.56C460.727 193.56 460.301 193.673 459.927 193.9C459.567 194.113 459.281 194.42 459.067 194.82C458.867 195.207 458.767 195.653 458.767 196.16C458.767 196.68 458.867 197.14 459.067 197.54C459.281 197.927 459.567 198.233 459.927 198.46C460.301 198.673 460.727 198.78 461.207 198.78ZM463.527 201V198.4L463.947 196.04L463.527 193.72V191.34H466.127V201H463.527ZM468.445 201V186.54H471.065V201H468.445ZM476.427 201.08L472.387 191.34H475.227L477.907 198.78H476.947L479.727 191.34H482.587L478.287 201.08H476.427ZM473.747 205.04L476.687 198.82L478.287 201.08L476.527 205.04H473.747ZM482.785 199.5L487.905 192.84H491.065L485.945 199.5H482.785ZM482.785 201V199.5L484.865 198.72H490.945V201H482.785ZM483.145 193.62V191.34H491.065V192.84L488.965 193.62H483.145ZM497.225 201.2C496.212 201.2 495.312 200.987 494.525 200.56C493.739 200.12 493.112 199.52 492.645 198.76C492.192 198 491.965 197.133 491.965 196.16C491.965 195.2 492.185 194.347 492.625 193.6C493.079 192.84 493.692 192.24 494.465 191.8C495.239 191.347 496.099 191.12 497.045 191.12C497.979 191.12 498.799 191.333 499.505 191.76C500.225 192.173 500.785 192.747 501.185 193.48C501.599 194.2 501.805 195.02 501.805 195.94C501.805 196.113 501.792 196.293 501.765 196.48C501.752 196.653 501.719 196.853 501.665 197.08L493.545 197.1V195.14L500.445 195.12L499.385 195.94C499.359 195.367 499.252 194.887 499.065 194.5C498.892 194.113 498.632 193.82 498.285 193.62C497.952 193.407 497.539 193.3 497.045 193.3C496.525 193.3 496.072 193.42 495.685 193.66C495.299 193.887 494.999 194.213 494.785 194.64C494.585 195.053 494.485 195.547 494.485 196.12C494.485 196.707 494.592 197.22 494.805 197.66C495.032 198.087 495.352 198.42 495.765 198.66C496.179 198.887 496.659 199 497.205 199C497.699 199 498.145 198.92 498.545 198.76C498.945 198.587 499.292 198.333 499.585 198L501.125 199.54C500.659 200.087 500.085 200.5 499.405 200.78C498.739 201.06 498.012 201.2 497.225 201.2Z" fill="#1B1F28"/>
<path d="M409.001 206L403.201 200.2M406.333 192.667C406.333 198.558 401.558 203.333 395.667 203.333C389.776 203.333 385 198.558 385 192.667C385 186.776 389.776 182 395.667 182C401.558 182 406.333 186.776 406.333 192.667Z" stroke="#0B3D91" stroke-width="1.5" stroke-linecap="round" stroke-linejoin="round"/>
</g>
<defs>
<filter id="filter0_dddd_1_1384" x="159" y="27" width="362" height="525" filterUnits="userSpaceOnUse" color-interpolation-filters="sRGB">
<feFlood flood-opacity="0" result="BackgroundImageFix"/>
<feColorMatrix in="SourceAlpha" type="matrix" values="0 0 0 0 0 0 0 0 0 0 0 0 0 0 0 0 0 0 127 0" result="hardAlpha"/>
<feOffset dx="1" dy="5"/>
<feGaussianBlur stdDeviation="5.5"/>
<feColorMatrix type="matrix" values="0 0 0 0 0 0 0 0 0 0 0 0 0 0 0 0 0 0 0.08 0"/>
<feBlend mode="normal" in2="BackgroundImageFix" result="effect1_dropShadow_1_1384"/>
<feColorMatrix in="SourceAlpha" type="matrix" values="0 0 0 0 0 0 0 0 0 0 0 0 0 0 0 0 0 0 127 0" result="hardAlpha"/>
<feOffset dx="2" dy="20"/>
<feGaussianBlur stdDeviation="10.5"/>
<feColorMatrix type="matrix" values="0 0 0 0 0 0 0 0 0 0 0 0 0 0 0 0 0 0 0.06 0"/>
<feBlend mode="normal" in2="effect1_dropShadow_1_1384" result="effect2_dropShadow_1_1384"/>
<feColorMatrix in="SourceAlpha" type="matrix" values="0 0 0 0 0 0 0 0 0 0 0 0 0 0 0 0 0 0 127 0" result="hardAlpha"/>
<feOffset dx="5" dy="46"/>
<feGaussianBlur stdDeviation="14"/>
<feColorMatrix type="matrix" values="0 0 0 0 0 0 0 0 0 0 0 0 0 0 0 0 0 0 0.04 0"/>
<feBlend mode="normal" in2="effect2_dropShadow_1_1384" result="effect3_dropShadow_1_1384"/>
<feColorMatrix in="SourceAlpha" type="matrix" values="0 0 0 0 0 0 0 0 0 0 0 0 0 0 0 0 0 0 127 0" result="hardAlpha"/>
<feOffset dx="10" dy="82"/>
<feGaussianBlur stdDeviation="16.5"/>
<feColorMatrix type="matrix" values="0 0 0 0 0 0 0 0 0 0 0 0 0 0 0 0 0 0 0.01 0"/>
<feBlend mode="normal" in2="effect3_dropShadow_1_1384" result="effect4_dropShadow_1_1384"/>
<feBlend mode="normal" in="SourceGraphic" in2="effect4_dropShadow_1_1384" result="shape"/>
</filter>
<filter id="filter1_dddd_1_1384" x="48" y="283" width="297" height="193" filterUnits="userSpaceOnUse" color-interpolation-filters="sRGB">
<feFlood flood-opacity="0" result="BackgroundImageFix"/>
<feColorMatrix in="SourceAlpha" type="matrix" values="0 0 0 0 0 0 0 0 0 0 0 0 0 0 0 0 0 0 127 0" result="hardAlpha"/>
<feOffset dx="1" dy="5"/>
<feGaussianBlur stdDeviation="5.5"/>
<feColorMatrix type="matrix" values="0 0 0 0 0 0 0 0 0 0 0 0 0 0 0 0 0 0 0.08 0"/>
<feBlend mode="normal" in2="BackgroundImageFix" result="effect1_dropShadow_1_1384"/>
<feColorMatrix in="SourceAlpha" type="matrix" values="0 0 0 0 0 0 0 0 0 0 0 0 0 0 0 0 0 0 127 0" result="hardAlpha"/>
<feOffset dx="2" dy="20"/>
<feGaussianBlur stdDeviation="10.5"/>
<feColorMatrix type="matrix" values="0 0 0 0 0 0 0 0 0 0 0 0 0 0 0 0 0 0 0.06 0"/>
<feBlend mode="normal" in2="effect1_dropShadow_1_1384" result="effect2_dropShadow_1_1384"/>
<feColorMatrix in="SourceAlpha" type="matrix" values="0 0 0 0 0 0 0 0 0 0 0 0 0 0 0 0 0 0 127 0" result="hardAlpha"/>
<feOffset dx="5" dy="46"/>
<feGaussianBlur stdDeviation="14"/>
<feColorMatrix type="matrix" values="0 0 0 0 0 0 0 0 0 0 0 0 0 0 0 0 0 0 0.04 0"/>
<feBlend mode="normal" in2="effect2_dropShadow_1_1384" result="effect3_dropShadow_1_1384"/>
<feColorMatrix in="SourceAlpha" type="matrix" values="0 0 0 0 0 0 0 0 0 0 0 0 0 0 0 0 0 0 127 0" result="hardAlpha"/>
<feOffset dx="10" dy="82"/>
<feGaussianBlur stdDeviation="16.5"/>
<feColorMatrix type="matrix" values="0 0 0 0 0 0 0 0 0 0 0 0 0 0 0 0 0 0 0.01 0"/>
<feBlend mode="normal" in2="effect3_dropShadow_1_1384" result="effect4_dropShadow_1_1384"/>
<feBlend mode="normal" in="SourceGraphic" in2="effect4_dropShadow_1_1384" result="shape"/>
</filter>
<filter id="filter2_dddd_1_1384" x="338" y="152" width="297" height="193" filterUnits="userSpaceOnUse" color-interpolation-filters="sRGB">
<feFlood flood-opacity="0" result="BackgroundImageFix"/>
<feColorMatrix in="SourceAlpha" type="matrix" values="0 0 0 0 0 0 0 0 0 0 0 0 0 0 0 0 0 0 127 0" result="hardAlpha"/>
<feOffset dx="1" dy="5"/>
<feGaussianBlur stdDeviation="5.5"/>
<feColorMatrix type="matrix" values="0 0 0 0 0 0 0 0 0 0 0 0 0 0 0 0 0 0 0.08 0"/>
<feBlend mode="normal" in2="BackgroundImageFix" result="effect1_dropShadow_1_1384"/>
<feColorMatrix in="SourceAlpha" type="matrix" values="0 0 0 0 0 0 0 0 0 0 0 0 0 0 0 0 0 0 127 0" result="hardAlpha"/>
<feOffset dx="2" dy="20"/>
<feGaussianBlur stdDeviation="10.5"/>
<feColorMatrix type="matrix" values="0 0 0 0 0 0 0 0 0 0 0 0 0 0 0 0 0 0 0.06 0"/>
<feBlend mode="normal" in2="effect1_dropShadow_1_1384" result="effect2_dropShadow_1_1384"/>
<feColorMatrix in="SourceAlpha" type="matrix" values="0 0 0 0 0 0 0 0 0 0 0 0 0 0 0 0 0 0 127 0" result="hardAlpha"/>
<feOffset dx="5" dy="46"/>
<feGaussianBlur stdDeviation="14"/>
<feColorMatrix type="matrix" values="0 0 0 0 0 0 0 0 0 0 0 0 0 0 0 0 0 0 0.04 0"/>
<feBlend mode="normal" in2="effect2_dropShadow_1_1384" result="effect3_dropShadow_1_1384"/>
<feColorMatrix in="SourceAlpha" type="matrix" values="0 0 0 0 0 0 0 0 0 0 0 0 0 0 0 0 0 0 127 0" result="hardAlpha"/>
<feOffset dx="10" dy="82"/>
<feGaussianBlur stdDeviation="16.5"/>
<feColorMatrix type="matrix" values="0 0 0 0 0 0 0 0 0 0 0 0 0 0 0 0 0 0 0.01 0"/>
<feBlend mode="normal" in2="effect3_dropShadow_1_1384" result="effect4_dropShadow_1_1384"/>
<feBlend mode="normal" in="SourceGraphic" in2="effect4_dropShadow_1_1384" result="shape"/>
</filter>
<linearGradient id="paint0_linear_1_1384" x1="207.517" y1="-0.666667" x2="541.637" y2="339.909" gradientUnits="userSpaceOnUse">
<stop stop-opacity="0"/>
<stop offset="1" stop-opacity="0.5"/>
</linearGradient>
<linearGradient id="paint1_linear_1_1384" x1="90.9138" y1="283" x2="116.324" y2="396.421" gradientUnits="userSpaceOnUse">
<stop stop-color="#FAFCFF" stop-opacity="0"/>
<stop offset="1" stop-color="#0054AD" stop-opacity="0.16"/>
</linearGradient>
<linearGradient id="paint2_linear_1_1384" x1="380.914" y1="152" x2="406.324" y2="265.421" gradientUnits="userSpaceOnUse">
<stop stop-color="#FAFCFF" stop-opacity="0"/>
<stop offset="1" stop-color="#0054AD" stop-opacity="0.16"/>
</linearGradient>
</defs>
</svg>
