<svg width="19" height="23" viewBox="0 0 19 23" fill="none" xmlns="http://www.w3.org/2000/svg">
<path d="M11.8444 0.336915C12.0601 0.121188 12.3528 0 12.6579 0C12.963 0 13.2557 0.121188 13.4715 0.336915L18.0743 4.93979C18.2901 5.15558 18.4113 5.44822 18.4113 5.75335C18.4113 6.05848 18.2901 6.35112 18.0743 6.56691L13.4715 11.1698C13.2544 11.3794 12.9638 11.4954 12.6621 11.4928C12.3603 11.4901 12.0717 11.3691 11.8584 11.1558C11.645 10.9424 11.524 10.6538 11.5214 10.3521C11.5188 10.0504 11.6347 9.7597 11.8444 9.54267L14.483 6.90407H1.15072C0.84553 6.90407 0.55284 6.78283 0.337038 6.56703C0.121236 6.35123 0 6.05854 0 5.75335C0 5.44816 0.121236 5.15547 0.337038 4.93967C0.55284 4.72387 0.84553 4.60263 1.15072 4.60263H14.483L11.8444 1.96403C11.6286 1.74824 11.5074 1.4556 11.5074 1.15047C11.5074 0.845344 11.6286 0.552707 11.8444 0.336915ZM6.56715 11.8441C6.78288 12.0599 6.90407 12.3525 6.90407 12.6577C6.90407 12.9628 6.78288 13.2554 6.56715 13.4712L3.92856 16.1098H17.2608C17.566 16.1098 17.8587 16.2311 18.0745 16.4469C18.2903 16.6627 18.4115 16.9554 18.4115 17.2605C18.4115 17.5657 18.2903 17.8584 18.0745 18.0742C17.8587 18.29 17.566 18.4113 17.2608 18.4113H3.92856L6.56715 21.0499C6.77677 21.2669 6.89275 21.5576 6.89013 21.8593C6.88751 22.161 6.76649 22.4496 6.55314 22.663C6.33978 22.8763 6.05117 22.9973 5.74945 23C5.44774 23.0026 5.15707 22.8866 4.94004 22.677L0.337161 18.0741C0.121434 17.8583 0.00024582 17.5657 0.00024582 17.2605C0.00024582 16.9554 0.121434 16.6628 0.337161 16.447L4.94004 11.8441C5.15583 11.6284 5.44847 11.5072 5.7536 11.5072C6.05873 11.5072 6.35136 11.6284 6.56715 11.8441Z" fill="#0D0D0D"/>
</svg>
