<svg width="170" height="170" viewBox="0 0 170 170" fill="none" xmlns="http://www.w3.org/2000/svg">
<mask id="path-1-inside-1_460_328" fill="white">
<path d="M25 107C22.2386 107 20 104.761 20 102V68C20 65.2386 22.2386 63 25 63H64V107H25Z"/>
</mask>
<path d="M25 107C22.2386 107 20 104.761 20 102V68C20 65.2386 22.2386 63 25 63H64V107H25Z" fill="white"/>
<path d="M25 117C16.7157 117 10 110.284 10 102V68C10 59.7157 16.7157 53 25 53L30 73V97L25 117ZM64 63V107V63ZM64 117H25C16.7157 117 10 110.284 10 102L30 97H64V117ZM10 68C10 59.7157 16.7157 53 25 53H64V73H30L10 68Z" fill="#F6F6F6" mask="url(#path-1-inside-1_460_328)"/>
<mask id="path-3-inside-2_460_328" fill="white">
<path d="M107 145C107 147.761 104.761 150 102 150H68C65.2386 150 63 147.761 63 145V106H107V145Z"/>
</mask>
<path d="M107 145C107 147.761 104.761 150 102 150H68C65.2386 150 63 147.761 63 145V106H107V145Z" fill="white"/>
<path d="M117 145C117 153.284 110.284 160 102 160H68C59.7157 160 53 153.284 53 145L73 140H97L117 145ZM63 106H107H63ZM117 106V145C117 153.284 110.284 160 102 160L97 140V106H117ZM68 160C59.7157 160 53 153.284 53 145V106H73V140L68 160Z" fill="#F6F6F6" mask="url(#path-3-inside-2_460_328)"/>
<mask id="path-5-inside-3_460_328" fill="white">
<path d="M145 63C147.761 63 150 65.2386 150 68V102C150 104.761 147.761 107 145 107H106V63H145Z"/>
</mask>
<path d="M145 63C147.761 63 150 65.2386 150 68V102C150 104.761 147.761 107 145 107H106V63H145Z" fill="white"/>
<path d="M145 53C153.284 53 160 59.7157 160 68V102C160 110.284 153.284 117 145 117L140 97V73L145 53ZM106 107V63V107ZM106 53H145C153.284 53 160 59.7157 160 68L140 73H106V53ZM160 102C160 110.284 153.284 117 145 117H106V97H140L160 102Z" fill="#F6F6F6" mask="url(#path-5-inside-3_460_328)"/>
<mask id="path-7-inside-4_460_328" fill="white">
<path d="M63 25C63 22.2386 65.2386 20 68 20H102C104.761 20 107 22.2386 107 25V64H63V25Z"/>
</mask>
<path d="M63 25C63 22.2386 65.2386 20 68 20H102C104.761 20 107 22.2386 107 25V64H63V25Z" fill="white"/>
<path d="M53 25C53 16.7157 59.7157 10 68 10H102C110.284 10 117 16.7157 117 25L97 30H73L53 25ZM107 64H63H107ZM53 64V25C53 16.7157 59.7157 10 68 10L73 30V64H53ZM102 10C110.284 10 117 16.7157 117 25V64H97V30L102 10Z" fill="#F6F6F6" mask="url(#path-7-inside-4_460_328)"/>
<rect x="63" y="63" width="44" height="44" fill="white"/>
<path d="M63 63H73V68C73 70.7614 70.7614 73 68 73H63V63Z" fill="#F6F6F6"/>
<path d="M107 107H97V102C97 99.2386 99.2386 97 102 97H107V107Z" fill="#F6F6F6"/>
<path d="M63 107V97H68C70.7614 97 73 99.2386 73 102V107H63Z" fill="#F6F6F6"/>
<path d="M107 63V73H102C99.2386 73 97 70.7614 97 68V63H107Z" fill="#F6F6F6"/>
<path d="M75.2723 53.2C74.4723 53.2 73.7656 53.0467 73.1523 52.74C72.5523 52.42 72.0589 51.9933 71.6723 51.46L72.9923 50.24C73.2456 50.6133 73.5589 50.9 73.9323 51.1C74.3189 51.3 74.7456 51.4 75.2123 51.4C75.6789 51.4 76.0923 51.3 76.4523 51.1C76.8123 50.9 77.0923 50.6067 77.2923 50.22C77.5056 49.82 77.6123 49.3333 77.6123 48.76V39.12H79.4923V48.66C79.4923 49.58 79.3056 50.38 78.9323 51.06C78.5723 51.74 78.0723 52.2667 77.4323 52.64C76.8056 53.0133 76.0856 53.2 75.2723 53.2ZM81.6346 48.22L86.6946 39.12H88.8146L83.6546 48.22H81.6346ZM81.6346 49.38V48.22L82.4346 47.7H92.2746V49.38H81.6346ZM88.4146 53V43.82H90.2746V53H88.4146Z" fill="black"/>
<path d="M77.2723 130.2C76.4723 130.2 75.7656 130.047 75.1523 129.74C74.5523 129.42 74.0589 128.993 73.6723 128.46L74.9923 127.24C75.2456 127.613 75.5589 127.9 75.9323 128.1C76.3189 128.3 76.7456 128.4 77.2123 128.4C77.6789 128.4 78.0923 128.3 78.4523 128.1C78.8123 127.9 79.0923 127.607 79.2923 127.22C79.5056 126.82 79.6123 126.333 79.6123 125.76V116.12H81.4923V125.66C81.4923 126.58 81.3056 127.38 80.9323 128.06C80.5723 128.74 80.0723 129.267 79.4323 129.64C78.8056 130.013 78.0856 130.2 77.2723 130.2ZM83.6346 125.22L88.6946 116.12H90.8146L85.6546 125.22H83.6346ZM83.6346 126.38V125.22L84.4346 124.7H94.2746V126.38H83.6346ZM90.4146 130V120.82H92.2746V130H90.4146Z" fill="black"/>
<path d="M35.868 92.2C35.068 92.2 34.3613 92.0467 33.748 91.74C33.148 91.42 32.6546 90.9933 32.268 90.46L33.588 89.24C33.8413 89.6133 34.1546 89.9 34.528 90.1C34.9146 90.3 35.3413 90.4 35.808 90.4C36.2746 90.4 36.688 90.3 37.048 90.1C37.408 89.9 37.688 89.6067 37.888 89.22C38.1013 88.82 38.208 88.3333 38.208 87.76V78.12H40.088V87.66C40.088 88.58 39.9013 89.38 39.528 90.06C39.168 90.74 38.668 91.2667 38.028 91.64C37.4013 92.0133 36.6813 92.2 35.868 92.2ZM46.5103 92.2C45.6036 92.2 44.777 92.0333 44.0303 91.7C43.297 91.3533 42.677 90.8533 42.1703 90.2L43.4503 88.92C43.757 89.3867 44.177 89.76 44.7103 90.04C45.2436 90.3067 45.837 90.44 46.4903 90.44C47.1036 90.44 47.6303 90.3267 48.0703 90.1C48.5236 89.86 48.877 89.5267 49.1303 89.1C49.397 88.6733 49.5303 88.18 49.5303 87.62C49.5303 87.0467 49.397 86.5533 49.1303 86.14C48.877 85.7133 48.517 85.3867 48.0503 85.16C47.5836 84.9333 47.0303 84.82 46.3903 84.82C46.1503 84.82 45.9103 84.84 45.6703 84.88C45.4303 84.9067 45.197 84.9533 44.9703 85.02L45.7703 83.94C46.0236 83.82 46.297 83.7267 46.5903 83.66C46.8836 83.5933 47.177 83.56 47.4703 83.56C48.217 83.56 48.8836 83.7333 49.4703 84.08C50.0703 84.4267 50.5436 84.9133 50.8903 85.54C51.2503 86.1667 51.4303 86.8933 51.4303 87.72C51.4303 88.6 51.217 89.38 50.7903 90.06C50.377 90.7267 49.8036 91.2533 49.0703 91.64C48.337 92.0133 47.4836 92.2 46.5103 92.2ZM44.9703 85.02V83.88L49.0303 79.26L51.2703 79.24L47.0903 83.98L44.9703 85.02ZM42.8303 79.8V78.12H51.2703V79.24L49.6303 79.8H42.8303Z" fill="black"/>
<path d="M115.868 92.2C115.068 92.2 114.361 92.0467 113.748 91.74C113.148 91.42 112.655 90.9933 112.268 90.46L113.588 89.24C113.841 89.6133 114.155 89.9 114.528 90.1C114.915 90.3 115.341 90.4 115.808 90.4C116.275 90.4 116.688 90.3 117.048 90.1C117.408 89.9 117.688 89.6067 117.888 89.22C118.101 88.82 118.208 88.3333 118.208 87.76V78.12H120.088V87.66C120.088 88.58 119.901 89.38 119.528 90.06C119.168 90.74 118.668 91.2667 118.028 91.64C117.401 92.0133 116.681 92.2 115.868 92.2ZM126.51 92.2C125.604 92.2 124.777 92.0333 124.03 91.7C123.297 91.3533 122.677 90.8533 122.17 90.2L123.45 88.92C123.757 89.3867 124.177 89.76 124.71 90.04C125.244 90.3067 125.837 90.44 126.49 90.44C127.104 90.44 127.63 90.3267 128.07 90.1C128.524 89.86 128.877 89.5267 129.13 89.1C129.397 88.6733 129.53 88.18 129.53 87.62C129.53 87.0467 129.397 86.5533 129.13 86.14C128.877 85.7133 128.517 85.3867 128.05 85.16C127.584 84.9333 127.03 84.82 126.39 84.82C126.15 84.82 125.91 84.84 125.67 84.88C125.43 84.9067 125.197 84.9533 124.97 85.02L125.77 83.94C126.024 83.82 126.297 83.7267 126.59 83.66C126.884 83.5933 127.177 83.56 127.47 83.56C128.217 83.56 128.884 83.7333 129.47 84.08C130.07 84.4267 130.544 84.9133 130.89 85.54C131.25 86.1667 131.43 86.8933 131.43 87.72C131.43 88.6 131.217 89.38 130.79 90.06C130.377 90.7267 129.804 91.2533 129.07 91.64C128.337 92.0133 127.484 92.2 126.51 92.2ZM124.97 85.02V83.88L129.03 79.26L131.27 79.24L127.09 83.98L124.97 85.02ZM122.83 79.8V78.12H131.27V79.24L129.63 79.8H122.83Z" fill="black"/>
<path d="M86 0L98.9904 12.75H73.0096L86 0Z" fill="#F6F6F6"/>
<path d="M170 85L157.25 97.9904V72.0096L170 85Z" fill="#F6F6F6"/>
<path d="M84 170L71.0096 157.25H96.9904L84 170Z" fill="#F6F6F6"/>
<path d="M0 85L12.75 72.0096V97.9904L0 85Z" fill="#F6F6F6"/>
</svg>
