<svg width="44" height="167" viewBox="0 0 44 167" fill="none" xmlns="http://www.w3.org/2000/svg">
<mask id="path-1-inside-1_460_329" fill="white">
<path d="M44 142C44 144.761 41.7614 147 39 147H5C2.23857 147 0 144.761 0 142V103H44V142Z"/>
</mask>
<path d="M44 142C44 144.761 41.7614 147 39 147H5C2.23857 147 0 144.761 0 142V103H44V142Z" fill="white"/>
<path d="M54 142C54 150.284 47.2843 157 39 157H5C-3.28427 157 -10 150.284 -10 142L10 137H34L54 142ZM0 103H44H0ZM54 103V142C54 150.284 47.2843 157 39 157L34 137V103H54ZM5 157C-3.28427 157 -10 150.284 -10 142V103H10V137L5 157Z" fill="#F6F6F6" mask="url(#path-1-inside-1_460_329)"/>
<mask id="path-3-inside-2_460_329" fill="white">
<path d="M0 22C0 19.2386 2.23858 17 5 17H39C41.7614 17 44 19.2386 44 22V61H0V22Z"/>
</mask>
<path d="M0 22C0 19.2386 2.23858 17 5 17H39C41.7614 17 44 19.2386 44 22V61H0V22Z" fill="white"/>
<path d="M-10 22C-10 13.7157 -3.28427 7 5 7H39C47.2843 7 54 13.7157 54 22L34 27H10L-10 22ZM44 61H0H44ZM-10 61V22C-10 13.7157 -3.28427 7 5 7L10 27V61H-10ZM39 7C47.2843 7 54 13.7157 54 22V61H34V27L39 7Z" fill="#F6F6F6" mask="url(#path-3-inside-2_460_329)"/>
<mask id="path-5-inside-3_460_329" fill="white">
<path d="M0 60H44V104H0V60Z"/>
</mask>
<path d="M0 60H44V104H0V60Z" fill="white"/>
<path d="M34 60V104H54V60H34ZM10 104V60H-10V104H10Z" fill="#F6F6F6" mask="url(#path-5-inside-3_460_329)"/>
<path d="M15.6043 50.2C14.8043 50.2 14.0976 50.0467 13.4843 49.74C12.8843 49.42 12.391 48.9933 12.0043 48.46L13.3243 47.24C13.5776 47.6133 13.891 47.9 14.2643 48.1C14.651 48.3 15.0776 48.4 15.5443 48.4C16.011 48.4 16.4243 48.3 16.7843 48.1C17.1443 47.9 17.4243 47.6067 17.6243 47.22C17.8376 46.82 17.9443 46.3333 17.9443 45.76V36.12H19.8243V45.66C19.8243 46.58 19.6376 47.38 19.2643 48.06C18.9043 48.74 18.4043 49.2667 17.7643 49.64C17.1376 50.0133 16.4176 50.2 15.6043 50.2ZM26.9466 50.2C26.0266 50.2 25.2 49.9867 24.4666 49.56C23.7466 49.1333 23.1733 48.56 22.7466 47.84C22.32 47.12 22.1066 46.32 22.1066 45.44C22.1066 44.2133 22.5333 42.9933 23.3866 41.78L27.4666 36.12H29.6466L25.4666 41.82L24.7866 42.18C24.9466 41.9 25.14 41.6667 25.3666 41.48C25.5933 41.28 25.8733 41.1267 26.2066 41.02C26.54 40.9133 26.9333 40.86 27.3866 40.86C28.2 40.86 28.9333 41.0533 29.5866 41.44C30.2533 41.8267 30.7866 42.36 31.1866 43.04C31.6 43.7067 31.8066 44.4867 31.8066 45.38C31.8066 46.26 31.5866 47.0667 31.1466 47.8C30.72 48.5333 30.1333 49.12 29.3866 49.56C28.6533 49.9867 27.84 50.2 26.9466 50.2ZM26.9466 48.44C27.5066 48.44 28.0066 48.3067 28.4466 48.04C28.9 47.76 29.2533 47.3933 29.5066 46.94C29.7733 46.4733 29.9066 45.9533 29.9066 45.38C29.9066 44.8067 29.7733 44.2933 29.5066 43.84C29.2533 43.3733 28.9 43.0067 28.4466 42.74C28.0066 42.4733 27.5066 42.34 26.9466 42.34C26.3866 42.34 25.88 42.4733 25.4266 42.74C24.9866 43.0067 24.6333 43.3733 24.3666 43.84C24.1133 44.2933 23.9866 44.8067 23.9866 45.38C23.9866 45.9533 24.1133 46.4733 24.3666 46.94C24.6333 47.4067 24.9866 47.7733 25.4266 48.04C25.88 48.3067 26.3866 48.44 26.9466 48.44Z" fill="black"/>
<path d="M14.6043 128.2C13.8043 128.2 13.0976 128.047 12.4843 127.74C11.8843 127.42 11.391 126.993 11.0043 126.46L12.3243 125.24C12.5776 125.613 12.891 125.9 13.2643 126.1C13.651 126.3 14.0776 126.4 14.5443 126.4C15.011 126.4 15.4243 126.3 15.7843 126.1C16.1443 125.9 16.4243 125.607 16.6243 125.22C16.8376 124.82 16.9443 124.333 16.9443 123.76V114.12H18.8243V123.66C18.8243 124.58 18.6376 125.38 18.2643 126.06C17.9043 126.74 17.4043 127.267 16.7643 127.64C16.1376 128.013 15.4176 128.2 14.6043 128.2ZM25.9466 128.2C25.0266 128.2 24.2 127.987 23.4666 127.56C22.7466 127.133 22.1733 126.56 21.7466 125.84C21.32 125.12 21.1066 124.32 21.1066 123.44C21.1066 122.213 21.5333 120.993 22.3866 119.78L26.4666 114.12H28.6466L24.4666 119.82L23.7866 120.18C23.9466 119.9 24.14 119.667 24.3666 119.48C24.5933 119.28 24.8733 119.127 25.2066 119.02C25.54 118.913 25.9333 118.86 26.3866 118.86C27.2 118.86 27.9333 119.053 28.5866 119.44C29.2533 119.827 29.7866 120.36 30.1866 121.04C30.6 121.707 30.8066 122.487 30.8066 123.38C30.8066 124.26 30.5866 125.067 30.1466 125.8C29.72 126.533 29.1333 127.12 28.3866 127.56C27.6533 127.987 26.84 128.2 25.9466 128.2ZM25.9466 126.44C26.5066 126.44 27.0066 126.307 27.4466 126.04C27.9 125.76 28.2533 125.393 28.5066 124.94C28.7733 124.473 28.9066 123.953 28.9066 123.38C28.9066 122.807 28.7733 122.293 28.5066 121.84C28.2533 121.373 27.9 121.007 27.4466 120.74C27.0066 120.473 26.5066 120.34 25.9466 120.34C25.3866 120.34 24.88 120.473 24.4266 120.74C23.9866 121.007 23.6333 121.373 23.3666 121.84C23.1133 122.293 22.9866 122.807 22.9866 123.38C22.9866 123.953 23.1133 124.473 23.3666 124.94C23.6333 125.407 23.9866 125.773 24.4266 126.04C24.88 126.307 25.3866 126.44 25.9466 126.44Z" fill="black"/>
<path d="M22 0L34.9904 12.75H9.00962L22 0Z" fill="#F6F6F6"/>
<path d="M22 167L9.00962 154.25H34.9904L22 167Z" fill="#F6F6F6"/>
</svg>
