<svg width="170" height="170" viewBox="0 0 170 170" fill="none" xmlns="http://www.w3.org/2000/svg">
<mask id="path-1-inside-1_459_326" fill="white">
<path d="M25 107C22.2386 107 20 104.761 20 102V68C20 65.2386 22.2386 63 25 63H64V107H25Z"/>
</mask>
<path d="M25 107C22.2386 107 20 104.761 20 102V68C20 65.2386 22.2386 63 25 63H64V107H25Z" fill="white"/>
<path d="M25 117C16.7157 117 10 110.284 10 102V68C10 59.7157 16.7157 53 25 53L30 73V97L25 117ZM64 63V107V63ZM64 117H25C16.7157 117 10 110.284 10 102L30 97H64V117ZM10 68C10 59.7157 16.7157 53 25 53H64V73H30L10 68Z" fill="#F6F6F6" mask="url(#path-1-inside-1_459_326)"/>
<mask id="path-3-inside-2_459_326" fill="white">
<path d="M107 145C107 147.761 104.761 150 102 150H68C65.2386 150 63 147.761 63 145V106H107V145Z"/>
</mask>
<path d="M107 145C107 147.761 104.761 150 102 150H68C65.2386 150 63 147.761 63 145V106H107V145Z" fill="white"/>
<path d="M117 145C117 153.284 110.284 160 102 160H68C59.7157 160 53 153.284 53 145L73 140H97L117 145ZM63 106H107H63ZM117 106V145C117 153.284 110.284 160 102 160L97 140V106H117ZM68 160C59.7157 160 53 153.284 53 145V106H73V140L68 160Z" fill="#F6F6F6" mask="url(#path-3-inside-2_459_326)"/>
<mask id="path-5-inside-3_459_326" fill="white">
<path d="M145 63C147.761 63 150 65.2386 150 68V102C150 104.761 147.761 107 145 107H106V63H145Z"/>
</mask>
<path d="M145 63C147.761 63 150 65.2386 150 68V102C150 104.761 147.761 107 145 107H106V63H145Z" fill="white"/>
<path d="M145 53C153.284 53 160 59.7157 160 68V102C160 110.284 153.284 117 145 117L140 97V73L145 53ZM106 107V63V107ZM106 53H145C153.284 53 160 59.7157 160 68L140 73H106V53ZM160 102C160 110.284 153.284 117 145 117H106V97H140L160 102Z" fill="#F6F6F6" mask="url(#path-5-inside-3_459_326)"/>
<mask id="path-7-inside-4_459_326" fill="white">
<path d="M63 25C63 22.2386 65.2386 20 68 20H102C104.761 20 107 22.2386 107 25V64H63V25Z"/>
</mask>
<path d="M63 25C63 22.2386 65.2386 20 68 20H102C104.761 20 107 22.2386 107 25V64H63V25Z" fill="white"/>
<path d="M53 25C53 16.7157 59.7157 10 68 10H102C110.284 10 117 16.7157 117 25L97 30H73L53 25ZM107 64H63H107ZM53 64V25C53 16.7157 59.7157 10 68 10L73 30V64H53ZM102 10C110.284 10 117 16.7157 117 25V64H97V30L102 10Z" fill="#F6F6F6" mask="url(#path-7-inside-4_459_326)"/>
<rect x="63" y="63" width="44" height="44" fill="white"/>
<path d="M63 63H73V68C73 70.7614 70.7614 73 68 73H63V63Z" fill="#F6F6F6"/>
<path d="M107 107H97V102C97 99.2386 99.2386 97 102 97H107V107Z" fill="#F6F6F6"/>
<path d="M63 107V97H68C70.7614 97 73 99.2386 73 102V107H63Z" fill="#F6F6F6"/>
<path d="M107 63V73H102C99.2386 73 97 70.7614 97 68V63H107Z" fill="#F6F6F6"/>
<path d="M76.8387 54.2C76.0387 54.2 75.332 54.0467 74.7187 53.74C74.1187 53.42 73.6253 52.9933 73.2387 52.46L74.5587 51.24C74.812 51.6133 75.1253 51.9 75.4987 52.1C75.8853 52.3 76.312 52.4 76.7787 52.4C77.2453 52.4 77.6587 52.3 78.0187 52.1C78.3787 51.9 78.6587 51.6067 78.8587 51.22C79.072 50.82 79.1787 50.3333 79.1787 49.76V40.12H81.0587V49.66C81.0587 50.58 80.872 51.38 80.4987 52.06C80.1387 52.74 79.6387 53.2667 78.9987 53.64C78.372 54.0133 77.652 54.2 76.8387 54.2ZM83.201 52.86L88.321 47.46C88.841 46.9267 89.2477 46.4667 89.541 46.08C89.8343 45.68 90.041 45.3133 90.161 44.98C90.2943 44.6467 90.361 44.3 90.361 43.94C90.361 43.2333 90.1343 42.68 89.681 42.28C89.2277 41.88 88.641 41.68 87.921 41.68C87.2143 41.68 86.5943 41.8533 86.061 42.2C85.5277 42.5333 85.0543 43.0533 84.641 43.76L83.321 42.66C83.8677 41.7533 84.5277 41.0733 85.301 40.62C86.0743 40.1533 86.9677 39.92 87.981 39.92C88.8343 39.92 89.5743 40.0867 90.201 40.42C90.841 40.7533 91.3343 41.22 91.681 41.82C92.0277 42.42 92.201 43.12 92.201 43.92C92.201 44.4933 92.1277 45.0067 91.981 45.46C91.8477 45.9133 91.601 46.38 91.241 46.86C90.8943 47.3267 90.4077 47.8867 89.781 48.54L85.641 52.8L83.201 52.86ZM83.201 54V52.86L84.801 52.32H92.521V54H83.201Z" fill="black"/>
<path d="M77.8387 130.2C77.0387 130.2 76.332 130.047 75.7187 129.74C75.1187 129.42 74.6253 128.993 74.2387 128.46L75.5587 127.24C75.812 127.613 76.1253 127.9 76.4987 128.1C76.8853 128.3 77.312 128.4 77.7787 128.4C78.2453 128.4 78.6587 128.3 79.0187 128.1C79.3787 127.9 79.6587 127.607 79.8587 127.22C80.072 126.82 80.1787 126.333 80.1787 125.76V116.12H82.0587V125.66C82.0587 126.58 81.872 127.38 81.4987 128.06C81.1387 128.74 80.6387 129.267 79.9987 129.64C79.372 130.013 78.652 130.2 77.8387 130.2ZM84.201 128.86L89.321 123.46C89.841 122.927 90.2477 122.467 90.541 122.08C90.8343 121.68 91.041 121.313 91.161 120.98C91.2943 120.647 91.361 120.3 91.361 119.94C91.361 119.233 91.1343 118.68 90.681 118.28C90.2277 117.88 89.641 117.68 88.921 117.68C88.2143 117.68 87.5943 117.853 87.061 118.2C86.5277 118.533 86.0543 119.053 85.641 119.76L84.321 118.66C84.8677 117.753 85.5277 117.073 86.301 116.62C87.0743 116.153 87.9677 115.92 88.981 115.92C89.8343 115.92 90.5743 116.087 91.201 116.42C91.841 116.753 92.3343 117.22 92.681 117.82C93.0277 118.42 93.201 119.12 93.201 119.92C93.201 120.493 93.1277 121.007 92.981 121.46C92.8477 121.913 92.601 122.38 92.241 122.86C91.8943 123.327 91.4077 123.887 90.781 124.54L86.641 128.8L84.201 128.86ZM84.201 130V128.86L85.801 128.32H93.521V130H84.201Z" fill="black"/>
<path d="M37.782 92.2C36.982 92.2 36.2754 92.0467 35.662 91.74C35.062 91.42 34.5687 90.9933 34.182 90.46L35.502 89.24C35.7554 89.6133 36.0687 89.9 36.442 90.1C36.8287 90.3 37.2554 90.4 37.722 90.4C38.1887 90.4 38.602 90.3 38.962 90.1C39.322 89.9 39.602 89.6067 39.802 89.22C40.0154 88.82 40.122 88.3333 40.122 87.76V78.12H42.002V87.66C42.002 88.58 41.8154 89.38 41.442 90.06C41.082 90.74 40.582 91.2667 39.942 91.64C39.3154 92.0133 38.5954 92.2 37.782 92.2ZM46.9444 92V78.12H48.8044V92H46.9444ZM44.1044 79.8V78.12H48.6044V79.8H44.1044Z" fill="black"/>
<path d="M117.782 92.2C116.982 92.2 116.275 92.0467 115.662 91.74C115.062 91.42 114.569 90.9933 114.182 90.46L115.502 89.24C115.755 89.6133 116.069 89.9 116.442 90.1C116.829 90.3 117.255 90.4 117.722 90.4C118.189 90.4 118.602 90.3 118.962 90.1C119.322 89.9 119.602 89.6067 119.802 89.22C120.015 88.82 120.122 88.3333 120.122 87.76V78.12H122.002V87.66C122.002 88.58 121.815 89.38 121.442 90.06C121.082 90.74 120.582 91.2667 119.942 91.64C119.315 92.0133 118.595 92.2 117.782 92.2ZM126.944 92V78.12H128.804V92H126.944ZM124.104 79.8V78.12H128.604V79.8H124.104Z" fill="black"/>
<path d="M86 0L98.9904 12.75H73.0096L86 0Z" fill="#F6F6F6"/>
<path d="M170 85L157.25 97.9904V72.0096L170 85Z" fill="#F6F6F6"/>
<path d="M84 170L71.0096 157.25H96.9904L84 170Z" fill="#F6F6F6"/>
<path d="M0 85L12.75 72.0096V97.9904L0 85Z" fill="#F6F6F6"/>
</svg>
