<svg width="167" height="44" viewBox="0 0 167 44" fill="none" xmlns="http://www.w3.org/2000/svg">
<mask id="path-1-inside-1_459_327" fill="white">
<path d="M23 44C20.2386 44 18 41.7614 18 39V5C18 2.23857 20.2386 0 23 0H62V44H23Z"/>
</mask>
<path d="M23 44C20.2386 44 18 41.7614 18 39V5C18 2.23857 20.2386 0 23 0H62V44H23Z" fill="white"/>
<path d="M23 54C14.7157 54 8 47.2843 8 39V5C8 -3.28427 14.7157 -10 23 -10L28 10V34L23 54ZM62 0V44V0ZM62 54H23C14.7157 54 8 47.2843 8 39L28 34H62V54ZM8 5C8 -3.28427 14.7157 -10 23 -10H62V10H28L8 5Z" fill="#F6F6F6" mask="url(#path-1-inside-1_459_327)"/>
<mask id="path-3-inside-2_459_327" fill="white">
<path d="M143 0C145.761 0 148 2.23858 148 5V39C148 41.7614 145.761 44 143 44H104V0H143Z"/>
</mask>
<path d="M143 0C145.761 0 148 2.23858 148 5V39C148 41.7614 145.761 44 143 44H104V0H143Z" fill="white"/>
<path d="M143 -10C151.284 -10 158 -3.28427 158 5V39C158 47.2843 151.284 54 143 54L138 34V10L143 -10ZM104 44V0V44ZM104 -10H143C151.284 -10 158 -3.28427 158 5L138 10H104V-10ZM158 39C158 47.2843 151.284 54 143 54H104V34H138L158 39Z" fill="#F6F6F6" mask="url(#path-3-inside-2_459_327)"/>
<mask id="path-5-inside-3_459_327" fill="white">
<path d="M61 0H105V44H61V0Z"/>
</mask>
<path d="M61 0H105V44H61V0Z" fill="white"/>
<path d="M61 10H105V-10H61V10ZM105 34H61V54H105V34Z" fill="#F6F6F6" mask="url(#path-5-inside-3_459_327)"/>
<path d="M36.8387 30.2C36.0387 30.2 35.332 30.0467 34.7187 29.74C34.1187 29.42 33.6253 28.9933 33.2387 28.46L34.5587 27.24C34.812 27.6133 35.1253 27.9 35.4987 28.1C35.8853 28.3 36.312 28.4 36.7787 28.4C37.2453 28.4 37.6587 28.3 38.0187 28.1C38.3787 27.9 38.6587 27.6067 38.8587 27.22C39.072 26.82 39.1787 26.3333 39.1787 25.76V16.12H41.0587V25.66C41.0587 26.58 40.872 27.38 40.4987 28.06C40.1387 28.74 39.6387 29.2667 38.9987 29.64C38.372 30.0133 37.652 30.2 36.8387 30.2ZM47.501 30.2C46.5543 30.2 45.7077 30.0333 44.961 29.7C44.2277 29.3533 43.6077 28.8533 43.101 28.2L44.381 26.92C44.6877 27.3867 45.1077 27.76 45.641 28.04C46.1877 28.3067 46.7943 28.44 47.461 28.44C48.0877 28.44 48.6343 28.32 49.101 28.08C49.581 27.84 49.9543 27.5067 50.221 27.08C50.501 26.64 50.641 26.12 50.641 25.52C50.641 24.9067 50.5077 24.3867 50.241 23.96C49.9743 23.5333 49.6143 23.2133 49.161 23C48.721 22.7733 48.2343 22.66 47.701 22.66C47.1543 22.66 46.6543 22.7267 46.201 22.86C45.761 22.9933 45.341 23.22 44.941 23.54L44.961 22.34C45.1877 22.06 45.4477 21.8333 45.741 21.66C46.0343 21.4867 46.3677 21.3533 46.741 21.26C47.1143 21.1667 47.5477 21.12 48.041 21.12C49.001 21.12 49.8143 21.32 50.481 21.72C51.1477 22.12 51.6543 22.66 52.001 23.34C52.361 24.02 52.541 24.78 52.541 25.62C52.541 26.5 52.321 27.2867 51.881 27.98C51.4543 28.6733 50.861 29.22 50.101 29.62C49.341 30.0067 48.4743 30.2 47.501 30.2ZM44.941 23.54L43.921 22.52L44.541 16.12H46.261L45.561 22.7L44.941 23.54ZM44.921 17.8L44.541 16.12H51.841V17.8H44.921Z" fill="black"/>
<path d="M112.839 29.2C112.039 29.2 111.332 29.0467 110.719 28.74C110.119 28.42 109.625 27.9933 109.239 27.46L110.559 26.24C110.812 26.6133 111.125 26.9 111.499 27.1C111.885 27.3 112.312 27.4 112.779 27.4C113.245 27.4 113.659 27.3 114.019 27.1C114.379 26.9 114.659 26.6067 114.859 26.22C115.072 25.82 115.179 25.3333 115.179 24.76V15.12H117.059V24.66C117.059 25.58 116.872 26.38 116.499 27.06C116.139 27.74 115.639 28.2667 114.999 28.64C114.372 29.0133 113.652 29.2 112.839 29.2ZM123.501 29.2C122.554 29.2 121.708 29.0333 120.961 28.7C120.228 28.3533 119.608 27.8533 119.101 27.2L120.381 25.92C120.688 26.3867 121.108 26.76 121.641 27.04C122.188 27.3067 122.794 27.44 123.461 27.44C124.088 27.44 124.634 27.32 125.101 27.08C125.581 26.84 125.954 26.5067 126.221 26.08C126.501 25.64 126.641 25.12 126.641 24.52C126.641 23.9067 126.508 23.3867 126.241 22.96C125.974 22.5333 125.614 22.2133 125.161 22C124.721 21.7733 124.234 21.66 123.701 21.66C123.154 21.66 122.654 21.7267 122.201 21.86C121.761 21.9933 121.341 22.22 120.941 22.54L120.961 21.34C121.188 21.06 121.448 20.8333 121.741 20.66C122.034 20.4867 122.368 20.3533 122.741 20.26C123.114 20.1667 123.548 20.12 124.041 20.12C125.001 20.12 125.814 20.32 126.481 20.72C127.148 21.12 127.654 21.66 128.001 22.34C128.361 23.02 128.541 23.78 128.541 24.62C128.541 25.5 128.321 26.2867 127.881 26.98C127.454 27.6733 126.861 28.22 126.101 28.62C125.341 29.0067 124.474 29.2 123.501 29.2ZM120.941 22.54L119.921 21.52L120.541 15.12H122.261L121.561 21.7L120.941 22.54ZM120.921 16.8L120.541 15.12H127.841V16.8H120.921Z" fill="black"/>
<path d="M167 23L154.25 35.9904V10.0096L167 23Z" fill="#F6F6F6"/>
<path d="M0 22L12.75 9.00962V34.9904L0 22Z" fill="#F6F6F6"/>
</svg>
