<svg width="660" height="384" viewBox="0 0 660 384" fill="none" xmlns="http://www.w3.org/2000/svg">
<g filter="url(#filter0_dddd_1_1423)">
<mask id="path-1-inside-1_1_1423" fill="white">
<path d="M151 49C151 40.1634 158.163 33 167 33H492C500.837 33 508 40.1634 508 49V421C508 429.837 500.837 437 492 437H167C158.163 437 151 429.837 151 421V49Z"/>
</mask>
<path d="M151 49C151 40.1634 158.163 33 167 33H492C500.837 33 508 40.1634 508 49V421C508 429.837 500.837 437 492 437H167C158.163 437 151 429.837 151 421V49Z" fill="white"/>
<path d="M151 49C151 40.1634 158.163 33 167 33H492C500.837 33 508 40.1634 508 49V421C508 429.837 500.837 437 492 437H167C158.163 437 151 429.837 151 421V49Z" fill="url(#paint0_linear_1_1423)" fill-opacity="0.32" style="mix-blend-mode:luminosity"/>
<path d="M167 34.5H492V31.5H167V34.5ZM506.5 49V421H509.5V49H506.5ZM492 435.5H167V438.5H492V435.5ZM152.5 421V49H149.5V421H152.5ZM167 435.5C158.992 435.5 152.5 429.008 152.5 421H149.5C149.5 430.665 157.335 438.5 167 438.5V435.5ZM506.5 421C506.5 429.008 500.008 435.5 492 435.5V438.5C501.665 438.5 509.5 430.665 509.5 421H506.5ZM492 34.5C500.008 34.5 506.5 40.9919 506.5 49H509.5C509.5 39.335 501.665 31.5 492 31.5V34.5ZM167 31.5C157.335 31.5 149.5 39.335 149.5 49H152.5C152.5 40.9919 158.992 34.5 167 34.5V31.5Z" fill="#49576E" fill-opacity="0.2" mask="url(#path-1-inside-1_1_1423)"/>
<path d="M186.728 87.28C185.141 87.28 183.779 87.0093 182.64 86.468C181.52 85.9267 180.503 85.1147 179.588 84.032L182.108 81.512C182.687 82.2773 183.359 82.8747 184.124 83.304C184.889 83.7147 185.823 83.92 186.924 83.92C187.913 83.92 188.697 83.724 189.276 83.332C189.873 82.94 190.172 82.3987 190.172 81.708C190.172 81.1107 190.004 80.6253 189.668 80.252C189.332 79.8787 188.884 79.5613 188.324 79.3C187.783 79.0387 187.176 78.8053 186.504 78.6C185.851 78.376 185.188 78.124 184.516 77.844C183.863 77.564 183.256 77.2187 182.696 76.808C182.155 76.3787 181.716 75.8373 181.38 75.184C181.044 74.512 180.876 73.672 180.876 72.664C180.876 71.4693 181.165 70.452 181.744 69.612C182.323 68.772 183.116 68.128 184.124 67.68C185.132 67.232 186.271 67.008 187.54 67.008C188.884 67.008 190.097 67.26 191.18 67.764C192.263 68.268 193.149 68.9213 193.84 69.724L191.32 72.244C190.741 71.6093 190.144 71.1427 189.528 70.844C188.931 70.5453 188.249 70.396 187.484 70.396C186.607 70.396 185.916 70.564 185.412 70.9C184.908 71.236 184.656 71.7213 184.656 72.356C184.656 72.8973 184.824 73.336 185.16 73.672C185.496 74.008 185.935 74.2973 186.476 74.54C187.036 74.7827 187.643 75.016 188.296 75.24C188.968 75.464 189.631 75.716 190.284 75.996C190.956 76.276 191.563 76.64 192.104 77.088C192.664 77.536 193.112 78.1147 193.448 78.824C193.784 79.5147 193.952 80.3733 193.952 81.4C193.952 83.2293 193.308 84.6667 192.02 85.712C190.732 86.7573 188.968 87.28 186.728 87.28ZM202.924 87.28C201.505 87.28 200.245 86.9813 199.144 86.384C198.043 85.768 197.165 84.928 196.512 83.864C195.877 82.8 195.56 81.5867 195.56 80.224C195.56 78.88 195.868 77.6853 196.484 76.64C197.119 75.576 197.977 74.736 199.06 74.12C200.143 73.4853 201.347 73.168 202.672 73.168C203.979 73.168 205.127 73.4667 206.116 74.064C207.124 74.6427 207.908 75.4453 208.468 76.472C209.047 77.48 209.336 78.628 209.336 79.916C209.336 80.1587 209.317 80.4107 209.28 80.672C209.261 80.9147 209.215 81.1947 209.14 81.512L197.772 81.54V78.796L207.432 78.768L205.948 79.916C205.911 79.1133 205.761 78.4413 205.5 77.9C205.257 77.3587 204.893 76.948 204.408 76.668C203.941 76.3693 203.363 76.22 202.672 76.22C201.944 76.22 201.309 76.388 200.768 76.724C200.227 77.0413 199.807 77.4987 199.508 78.096C199.228 78.6747 199.088 79.3653 199.088 80.168C199.088 80.9893 199.237 81.708 199.536 82.324C199.853 82.9213 200.301 83.388 200.88 83.724C201.459 84.0413 202.131 84.2 202.896 84.2C203.587 84.2 204.212 84.088 204.772 83.864C205.332 83.6213 205.817 83.2667 206.228 82.8L208.384 84.956C207.731 85.7213 206.928 86.3 205.976 86.692C205.043 87.084 204.025 87.28 202.924 87.28ZM213.264 87V67.848H216.932V87H213.264ZM210.1 76.696V73.476H220.096V76.696H210.1ZM227.927 87.28C226.732 87.28 225.668 87.028 224.735 86.524C223.82 86.02 223.102 85.32 222.579 84.424C222.056 83.528 221.795 82.492 221.795 81.316V73.476H225.491V81.232C225.491 81.792 225.584 82.2773 225.771 82.688C225.958 83.08 226.238 83.3787 226.611 83.584C226.984 83.7893 227.423 83.892 227.927 83.892C228.692 83.892 229.29 83.6587 229.719 83.192C230.148 82.7253 230.363 82.072 230.363 81.232V73.476H234.031V81.316C234.031 82.5107 233.77 83.556 233.247 84.452C232.743 85.348 232.024 86.048 231.091 86.552C230.176 87.0373 229.122 87.28 227.927 87.28ZM244.456 87.28C243.485 87.28 242.608 87.084 241.824 86.692C241.04 86.2813 240.415 85.7307 239.948 85.04C239.481 84.3493 239.229 83.556 239.192 82.66V77.872C239.229 76.976 239.481 76.1827 239.948 75.492C240.433 74.7827 241.059 74.2227 241.824 73.812C242.608 73.4013 243.485 73.196 244.456 73.196C245.707 73.196 246.827 73.504 247.816 74.12C248.805 74.736 249.58 75.576 250.14 76.64C250.719 77.704 251.008 78.908 251.008 80.252C251.008 81.5773 250.719 82.772 250.14 83.836C249.58 84.9 248.805 85.74 247.816 86.356C246.827 86.972 245.707 87.28 244.456 87.28ZM236.952 92.656V73.476H240.62V77.032L240.004 80.308L240.592 83.584V92.656H236.952ZM243.812 83.892C244.484 83.892 245.081 83.7427 245.604 83.444C246.127 83.1267 246.528 82.6973 246.808 82.156C247.107 81.596 247.256 80.952 247.256 80.224C247.256 79.5147 247.107 78.8893 246.808 78.348C246.528 77.788 246.127 77.3587 245.604 77.06C245.081 76.7427 244.484 76.584 243.812 76.584C243.159 76.584 242.571 76.7427 242.048 77.06C241.525 77.3587 241.115 77.788 240.816 78.348C240.536 78.8893 240.396 79.5147 240.396 80.224C240.396 80.952 240.536 81.596 240.816 82.156C241.115 82.6973 241.516 83.1267 242.02 83.444C242.543 83.7427 243.14 83.892 243.812 83.892Z" fill="#1B1F28"/>
<path opacity="0.5" d="M179 121C179 116.582 182.582 113 187 113H472C476.418 113 480 116.582 480 121V209C480 213.418 476.418 217 472 217H187C182.582 217 179 213.418 179 209V121Z" fill="#1B1F28" fill-opacity="0.2"/>
<path opacity="0.5" d="M179 245C179 240.582 182.582 237 187 237H472C476.418 237 480 240.582 480 245V333C480 337.418 476.418 341 472 341H187C182.582 341 179 337.418 179 333V245Z" fill="#1B1F28" fill-opacity="0.2"/>
<path d="M179 369C179 364.582 182.582 361 187 361H265C269.418 361 273 364.582 273 369V401C273 405.418 269.418 409 265 409H187C182.582 409 179 405.418 179 401V369Z" fill="#0B3D91"/>
<path d="M200.52 392.2C199.387 392.2 198.413 392.007 197.6 391.62C196.8 391.233 196.073 390.653 195.42 389.88L197.22 388.08C197.633 388.627 198.113 389.053 198.66 389.36C199.207 389.653 199.873 389.8 200.66 389.8C201.367 389.8 201.927 389.66 202.34 389.38C202.767 389.1 202.98 388.713 202.98 388.22C202.98 387.793 202.86 387.447 202.62 387.18C202.38 386.913 202.06 386.687 201.66 386.5C201.273 386.313 200.84 386.147 200.36 386C199.893 385.84 199.42 385.66 198.94 385.46C198.473 385.26 198.04 385.013 197.64 384.72C197.253 384.413 196.94 384.027 196.7 383.56C196.46 383.08 196.34 382.48 196.34 381.76C196.34 380.907 196.547 380.18 196.96 379.58C197.373 378.98 197.94 378.52 198.66 378.2C199.38 377.88 200.193 377.72 201.1 377.72C202.06 377.72 202.927 377.9 203.7 378.26C204.473 378.62 205.107 379.087 205.6 379.66L203.8 381.46C203.387 381.007 202.96 380.673 202.52 380.46C202.093 380.247 201.607 380.14 201.06 380.14C200.433 380.14 199.94 380.26 199.58 380.5C199.22 380.74 199.04 381.087 199.04 381.54C199.04 381.927 199.16 382.24 199.4 382.48C199.64 382.72 199.953 382.927 200.34 383.1C200.74 383.273 201.173 383.44 201.64 383.6C202.12 383.76 202.593 383.94 203.06 384.14C203.54 384.34 203.973 384.6 204.36 384.92C204.76 385.24 205.08 385.653 205.32 386.16C205.56 386.653 205.68 387.267 205.68 388C205.68 389.307 205.22 390.333 204.3 391.08C203.38 391.827 202.12 392.2 200.52 392.2ZM212.089 392.2C211.075 392.2 210.175 391.987 209.389 391.56C208.602 391.12 207.975 390.52 207.509 389.76C207.055 389 206.829 388.133 206.829 387.16C206.829 386.2 207.049 385.347 207.489 384.6C207.942 383.84 208.555 383.24 209.329 382.8C210.102 382.347 210.962 382.12 211.909 382.12C212.842 382.12 213.662 382.333 214.369 382.76C215.089 383.173 215.649 383.747 216.049 384.48C216.462 385.2 216.669 386.02 216.669 386.94C216.669 387.113 216.655 387.293 216.629 387.48C216.615 387.653 216.582 387.853 216.529 388.08L208.409 388.1V386.14L215.309 386.12L214.249 386.94C214.222 386.367 214.115 385.887 213.929 385.5C213.755 385.113 213.495 384.82 213.149 384.62C212.815 384.407 212.402 384.3 211.909 384.3C211.389 384.3 210.935 384.42 210.549 384.66C210.162 384.887 209.862 385.213 209.649 385.64C209.449 386.053 209.349 386.547 209.349 387.12C209.349 387.707 209.455 388.22 209.669 388.66C209.895 389.087 210.215 389.42 210.629 389.66C211.042 389.887 211.522 390 212.069 390C212.562 390 213.009 389.92 213.409 389.76C213.809 389.587 214.155 389.333 214.449 389L215.989 390.54C215.522 391.087 214.949 391.5 214.269 391.78C213.602 392.06 212.875 392.2 212.089 392.2ZM222.849 392.2C221.862 392.2 220.976 391.98 220.189 391.54C219.402 391.1 218.782 390.5 218.329 389.74C217.876 388.98 217.649 388.127 217.649 387.18C217.649 386.22 217.876 385.36 218.329 384.6C218.782 383.84 219.402 383.24 220.189 382.8C220.989 382.347 221.876 382.12 222.849 382.12C223.609 382.12 224.309 382.26 224.949 382.54C225.589 382.82 226.142 383.22 226.609 383.74L224.929 385.44C224.676 385.16 224.369 384.947 224.009 384.8C223.662 384.653 223.276 384.58 222.849 384.58C222.369 384.58 221.936 384.693 221.549 384.92C221.176 385.133 220.876 385.433 220.649 385.82C220.436 386.193 220.329 386.64 220.329 387.16C220.329 387.667 220.436 388.12 220.649 388.52C220.876 388.907 221.176 389.213 221.549 389.44C221.936 389.653 222.369 389.76 222.849 389.76C223.289 389.76 223.682 389.687 224.029 389.54C224.389 389.38 224.696 389.153 224.949 388.86L226.649 390.56C226.156 391.093 225.589 391.5 224.949 391.78C224.309 392.06 223.609 392.2 222.849 392.2ZM232.253 392.2C231.399 392.2 230.639 392.02 229.973 391.66C229.319 391.3 228.806 390.8 228.433 390.16C228.059 389.52 227.873 388.78 227.873 387.94V382.34H230.513V387.88C230.513 388.28 230.579 388.627 230.713 388.92C230.846 389.2 231.046 389.413 231.313 389.56C231.579 389.707 231.893 389.78 232.253 389.78C232.799 389.78 233.226 389.613 233.533 389.28C233.839 388.947 233.993 388.48 233.993 387.88V382.34H236.613V387.94C236.613 388.793 236.426 389.54 236.053 390.18C235.693 390.82 235.179 391.32 234.513 391.68C233.859 392.027 233.106 392.2 232.253 392.2ZM238.699 392V382.34H241.319V392H238.699ZM241.319 386.66L240.299 385.98C240.419 384.793 240.766 383.86 241.339 383.18C241.912 382.487 242.739 382.14 243.819 382.14C244.286 382.14 244.706 382.22 245.079 382.38C245.452 382.527 245.792 382.773 246.099 383.12L244.459 385C244.312 384.84 244.132 384.72 243.919 384.64C243.719 384.56 243.486 384.52 243.219 384.52C242.659 384.52 242.199 384.7 241.839 385.06C241.492 385.407 241.319 385.94 241.319 386.66ZM251.366 392.2C250.353 392.2 249.453 391.987 248.666 391.56C247.879 391.12 247.253 390.52 246.786 389.76C246.333 389 246.106 388.133 246.106 387.16C246.106 386.2 246.326 385.347 246.766 384.6C247.219 383.84 247.833 383.24 248.606 382.8C249.379 382.347 250.239 382.12 251.186 382.12C252.119 382.12 252.939 382.333 253.646 382.76C254.366 383.173 254.926 383.747 255.326 384.48C255.739 385.2 255.946 386.02 255.946 386.94C255.946 387.113 255.933 387.293 255.906 387.48C255.893 387.653 255.859 387.853 255.806 388.08L247.686 388.1V386.14L254.586 386.12L253.526 386.94C253.499 386.367 253.393 385.887 253.206 385.5C253.033 385.113 252.773 384.82 252.426 384.62C252.093 384.407 251.679 384.3 251.186 384.3C250.666 384.3 250.213 384.42 249.826 384.66C249.439 384.887 249.139 385.213 248.926 385.64C248.726 386.053 248.626 386.547 248.626 387.12C248.626 387.707 248.733 388.22 248.946 388.66C249.173 389.087 249.493 389.42 249.906 389.66C250.319 389.887 250.799 390 251.346 390C251.839 390 252.286 389.92 252.686 389.76C253.086 389.587 253.433 389.333 253.726 389L255.266 390.54C254.799 391.087 254.226 391.5 253.546 391.78C252.879 392.06 252.153 392.2 251.366 392.2Z" fill="#FAFCFF"/>
</g>
<defs>
<filter id="filter0_dddd_1_1423" x="128" y="27" width="423" height="525" filterUnits="userSpaceOnUse" color-interpolation-filters="sRGB">
<feFlood flood-opacity="0" result="BackgroundImageFix"/>
<feColorMatrix in="SourceAlpha" type="matrix" values="0 0 0 0 0 0 0 0 0 0 0 0 0 0 0 0 0 0 127 0" result="hardAlpha"/>
<feOffset dx="1" dy="5"/>
<feGaussianBlur stdDeviation="5.5"/>
<feColorMatrix type="matrix" values="0 0 0 0 0 0 0 0 0 0 0 0 0 0 0 0 0 0 0.08 0"/>
<feBlend mode="normal" in2="BackgroundImageFix" result="effect1_dropShadow_1_1423"/>
<feColorMatrix in="SourceAlpha" type="matrix" values="0 0 0 0 0 0 0 0 0 0 0 0 0 0 0 0 0 0 127 0" result="hardAlpha"/>
<feOffset dx="2" dy="20"/>
<feGaussianBlur stdDeviation="10.5"/>
<feColorMatrix type="matrix" values="0 0 0 0 0 0 0 0 0 0 0 0 0 0 0 0 0 0 0.06 0"/>
<feBlend mode="normal" in2="effect1_dropShadow_1_1423" result="effect2_dropShadow_1_1423"/>
<feColorMatrix in="SourceAlpha" type="matrix" values="0 0 0 0 0 0 0 0 0 0 0 0 0 0 0 0 0 0 127 0" result="hardAlpha"/>
<feOffset dx="5" dy="46"/>
<feGaussianBlur stdDeviation="14"/>
<feColorMatrix type="matrix" values="0 0 0 0 0 0 0 0 0 0 0 0 0 0 0 0 0 0 0.04 0"/>
<feBlend mode="normal" in2="effect2_dropShadow_1_1423" result="effect3_dropShadow_1_1423"/>
<feColorMatrix in="SourceAlpha" type="matrix" values="0 0 0 0 0 0 0 0 0 0 0 0 0 0 0 0 0 0 127 0" result="hardAlpha"/>
<feOffset dx="10" dy="82"/>
<feGaussianBlur stdDeviation="16.5"/>
<feColorMatrix type="matrix" values="0 0 0 0 0 0 0 0 0 0 0 0 0 0 0 0 0 0 0.01 0"/>
<feBlend mode="normal" in2="effect3_dropShadow_1_1423" result="effect4_dropShadow_1_1423"/>
<feBlend mode="normal" in="SourceGraphic" in2="effect4_dropShadow_1_1423" result="shape"/>
</filter>
<linearGradient id="paint0_linear_1_1423" x1="181.776" y1="-0.666667" x2="508.955" y2="401.562" gradientUnits="userSpaceOnUse">
<stop stop-color="#FAFCFF" stop-opacity="0"/>
<stop offset="1" stop-color="#0054AD" stop-opacity="0.16"/>
</linearGradient>
</defs>
</svg>
